<svg width="166" height="166" viewBox="0 0 166 166" fill="none" xmlns="http://www.w3.org/2000/svg">
<path d="M58.5556 33.2C52.5239 33.2 47.5556 38.1682 47.5556 44.2C47.5556 50.2317 52.5239 55.2 58.5556 55.2C59.4471 55.2 60.3203 55.0989 61.1528 54.8944L69.3646 69.2937C68.2188 70.409 67.2329 71.6724 66.3854 73.0368L50 67.2694C49.9155 61.3081 44.9798 56.4222 39 56.4222C32.9683 56.4222 28 61.3905 28 67.4222C28 73.4539 32.9683 78.4222 39 78.4222C42.4796 78.4222 45.6098 76.778 47.6319 74.2208L63.75 79.9118C63.554 81.0175 63.4444 82.1512 63.4444 83.3111C63.4444 87.0462 64.5503 90.5326 66.3854 93.509L52.3299 107.565C50.9193 106.901 49.3579 106.533 47.7083 106.533C41.6766 106.533 36.7083 111.502 36.7083 117.533C36.7083 123.565 41.6766 128.533 47.7083 128.533C53.74 128.533 58.7083 123.565 58.7083 117.533C58.7083 115.813 58.2805 114.178 57.5625 112.721L71.3125 98.9708C74.5778 101.418 78.6286 102.867 83 102.867C85.6467 102.867 88.1785 102.34 90.4861 101.377L98.7361 115.738C97.3037 117.596 96.4444 119.919 96.4444 122.422C96.4444 128.454 101.413 133.422 107.444 133.422C113.476 133.422 118.444 128.454 118.444 122.422C118.444 116.39 113.476 111.422 107.444 111.422C106.553 111.422 105.68 111.523 104.847 111.728L96.6354 97.3284C97.7812 96.2132 98.7671 94.9497 99.6146 93.5854L116 99.3527C116.085 105.314 121.02 110.2 127 110.2C133.032 110.2 138 105.232 138 99.2C138 93.1682 133.032 88.2 127 88.2C123.52 88.2 120.39 89.8441 118.368 92.4013L102.25 86.7104C102.446 85.6046 102.556 84.471 102.556 83.3111C102.556 79.5759 101.45 76.0895 99.6146 73.1131L107.597 65.1305C108.13 64.6154 108.495 63.9508 108.643 63.2243C108.79 62.4978 108.715 61.7436 108.425 61.0611C108.135 60.3787 107.646 59.8 107.021 59.4014C106.396 59.0028 105.665 58.803 104.924 58.8284C103.971 58.8562 103.067 59.2534 102.403 59.9361L94.6875 67.6513C91.4222 65.2045 87.3714 63.7555 83 63.7555C80.3533 63.7555 77.8215 64.2818 75.5139 65.2451L67.2639 50.884C68.6963 49.0262 69.5556 46.7032 69.5556 44.2C69.5556 38.1682 64.5873 33.2 58.5556 33.2ZM118.292 38.0888C112.26 38.0888 107.292 43.0571 107.292 49.0888C107.292 55.1205 112.26 60.0888 118.292 60.0888C124.323 60.0888 129.292 55.1205 129.292 49.0888C129.292 43.0571 124.323 38.0888 118.292 38.0888ZM58.5556 40.5333C60.624 40.5333 62.2222 42.1315 62.2222 44.2C62.2222 46.2684 60.624 47.8666 58.5556 47.8666C56.4871 47.8666 54.8889 46.2684 54.8889 44.2C54.8889 42.1315 56.4871 40.5333 58.5556 40.5333ZM118.292 45.4222C120.36 45.4222 121.958 47.0204 121.958 49.0888C121.958 51.1573 120.36 52.7555 118.292 52.7555C116.223 52.7555 114.625 51.1573 114.625 49.0888C114.625 47.0204 116.223 45.4222 118.292 45.4222ZM39 63.7555C41.0685 63.7555 42.6667 65.3537 42.6667 67.4222C42.6667 69.4906 41.0685 71.0888 39 71.0888C36.9315 71.0888 35.3333 69.4906 35.3333 67.4222C35.3333 65.3537 36.9315 63.7555 39 63.7555ZM83 71.0888C89.7936 71.0888 95.2222 76.5175 95.2222 83.3111C95.2222 90.1046 89.7936 95.5333 83 95.5333C76.2064 95.5333 70.7778 90.1046 70.7778 83.3111C70.7778 76.5175 76.2064 71.0888 83 71.0888ZM127 95.5333C129.068 95.5333 130.667 97.1315 130.667 99.2C130.667 101.268 129.068 102.867 127 102.867C124.932 102.867 123.333 101.268 123.333 99.2C123.333 97.1315 124.932 95.5333 127 95.5333ZM47.7083 113.867C49.7768 113.867 51.375 115.465 51.375 117.533C51.375 119.602 49.7768 121.2 47.7083 121.2C45.6399 121.2 44.0417 119.602 44.0417 117.533C44.0417 115.465 45.6399 113.867 47.7083 113.867ZM107.444 118.756C109.513 118.756 111.111 120.354 111.111 122.422C111.111 124.491 109.513 126.089 107.444 126.089C105.376 126.089 103.778 124.491 103.778 122.422C103.778 120.354 105.376 118.756 107.444 118.756Z" fill="#FF5C01"/>
<path d="M59.5556 34.2C53.5239 34.2 48.5556 39.1682 48.5556 45.2C48.5556 51.2317 53.5239 56.2 59.5556 56.2C60.4471 56.2 61.3203 56.0989 62.1528 55.8944L70.3646 70.2937C69.2188 71.409 68.2329 72.6724 67.3854 74.0368L51 68.2694C50.9155 62.3081 45.9798 57.4222 40 57.4222C33.9683 57.4222 29 62.3905 29 68.4222C29 74.4539 33.9683 79.4222 40 79.4222C43.4796 79.4222 46.6098 77.778 48.6319 75.2208L64.75 80.9118C64.554 82.0175 64.4444 83.1512 64.4444 84.3111C64.4444 88.0462 65.5503 91.5326 67.3854 94.509L53.3299 108.565C51.9193 107.901 50.3579 107.533 48.7083 107.533C42.6766 107.533 37.7083 112.502 37.7083 118.533C37.7083 124.565 42.6766 129.533 48.7083 129.533C54.74 129.533 59.7083 124.565 59.7083 118.533C59.7083 116.813 59.2805 115.178 58.5625 113.721L72.3125 99.9708C75.5778 102.418 79.6286 103.867 84 103.867C86.6467 103.867 89.1785 103.34 91.4861 102.377L99.7361 116.738C98.3037 118.596 97.4444 120.919 97.4444 123.422C97.4444 129.454 102.413 134.422 108.444 134.422C114.476 134.422 119.444 129.454 119.444 123.422C119.444 117.39 114.476 112.422 108.444 112.422C107.553 112.422 106.68 112.523 105.847 112.728L97.6354 98.3284C98.7812 97.2132 99.7671 95.9497 100.615 94.5854L117 100.353C117.085 106.314 122.02 111.2 128 111.2C134.032 111.2 139 106.232 139 100.2C139 94.1682 134.032 89.2 128 89.2C124.52 89.2 121.39 90.8441 119.368 93.4013L103.25 87.7104C103.446 86.6046 103.556 85.471 103.556 84.3111C103.556 80.5759 102.45 77.0895 100.615 74.1131L108.597 66.1305C109.13 65.6154 109.495 64.9508 109.643 64.2243C109.79 63.4978 109.715 62.7436 109.425 62.0611C109.135 61.3787 108.646 60.8 108.021 60.4014C107.396 60.0028 106.665 59.803 105.924 59.8284C104.971 59.8562 104.067 60.2534 103.403 60.9361L95.6875 68.6513C92.4222 66.2045 88.3714 64.7555 84 64.7555C81.3533 64.7555 78.8215 65.2818 76.5139 66.2451L68.2639 51.884C69.6963 50.0262 70.5556 47.7032 70.5556 45.2C70.5556 39.1682 65.5873 34.2 59.5556 34.2ZM119.292 39.0888C113.26 39.0888 108.292 44.0571 108.292 50.0888C108.292 56.1205 113.26 61.0888 119.292 61.0888C125.323 61.0888 130.292 56.1205 130.292 50.0888C130.292 44.0571 125.323 39.0888 119.292 39.0888ZM59.5556 41.5333C61.624 41.5333 63.2222 43.1315 63.2222 45.2C63.2222 47.2684 61.624 48.8666 59.5556 48.8666C57.4871 48.8666 55.8889 47.2684 55.8889 45.2C55.8889 43.1315 57.4871 41.5333 59.5556 41.5333ZM119.292 46.4222C121.36 46.4222 122.958 48.0204 122.958 50.0888C122.958 52.1573 121.36 53.7555 119.292 53.7555C117.223 53.7555 115.625 52.1573 115.625 50.0888C115.625 48.0204 117.223 46.4222 119.292 46.4222ZM40 64.7555C42.0685 64.7555 43.6667 66.3537 43.6667 68.4222C43.6667 70.4906 42.0685 72.0888 40 72.0888C37.9315 72.0888 36.3333 70.4906 36.3333 68.4222C36.3333 66.3537 37.9315 64.7555 40 64.7555ZM84 72.0888C90.7936 72.0888 96.2222 77.5175 96.2222 84.3111C96.2222 91.1046 90.7936 96.5333 84 96.5333C77.2064 96.5333 71.7778 91.1046 71.7778 84.3111C71.7778 77.5175 77.2064 72.0888 84 72.0888ZM128 96.5333C130.068 96.5333 131.667 98.1315 131.667 100.2C131.667 102.268 130.068 103.867 128 103.867C125.932 103.867 124.333 102.268 124.333 100.2C124.333 98.1315 125.932 96.5333 128 96.5333ZM48.7083 114.867C50.7768 114.867 52.375 116.465 52.375 118.533C52.375 120.602 50.7768 122.2 48.7083 122.2C46.6399 122.2 45.0417 120.602 45.0417 118.533C45.0417 116.465 46.6399 114.867 48.7083 114.867ZM108.444 119.756C110.513 119.756 112.111 121.354 112.111 123.422C112.111 125.491 110.513 127.089 108.444 127.089C106.376 127.089 104.778 125.491 104.778 123.422C104.778 121.354 106.376 119.756 108.444 119.756Z" fill="white"/>
</svg>
