<svg width="112" height="113" viewBox="0 0 112 113" fill="none" xmlns="http://www.w3.org/2000/svg">
<path d="M46.1803 21.0548C46.4555 21.33 46.5931 21.4676 46.7308 21.7429C56.3637 14.587 67.0975 9.08246 78.657 5.36691C71.3635 1.92658 63.2443 0 54.9875 0C50.3087 0 45.4922 0.688065 40.6758 1.92658C41.3638 3.99078 41.6391 6.05498 41.9143 8.25679C42.4648 12.3852 42.8776 16.7888 46.1803 21.0548Z" fill="#FF5C01"/>
<path d="M93.7943 16.1007C91.1796 13.4861 88.2897 11.1467 85.2622 9.08247C72.8771 12.5228 61.3176 18.0273 50.9966 25.596C55.5378 28.6235 61.18 29.4492 67.3725 30.2749C75.3541 31.2382 84.4366 32.4767 92.2805 39.495C101.088 47.4765 106.592 61.5131 106.455 74.7239C113.886 54.9076 109.62 31.9263 93.7943 16.1007Z" fill="#FF5C01"/>
<path d="M66.547 35.5042C59.5287 34.5409 52.3728 33.5776 46.3178 28.8988C43.8408 30.8253 41.3638 33.0272 38.8867 35.3666L95.4457 91.9256C105.767 78.7147 100.262 54.082 88.4274 43.3481C81.9596 37.4308 74.1157 36.4675 66.547 35.5042Z" fill="#FF5C01"/>
<path d="M28.7036 46.5132C33.3825 52.4306 34.4834 59.5865 35.309 66.6047C36.2723 74.1735 37.3732 82.0174 43.153 88.6228C53.8868 100.458 78.5196 105.824 91.7304 95.5035L35.1714 39.0821C32.832 41.4215 30.6302 44.0362 28.7036 46.5132Z" fill="#FF5C01"/>
<path d="M42.6026 25.0456C42.4649 24.7704 42.1897 24.6328 42.0521 24.3575C37.9237 18.853 37.2356 13.4861 36.6852 8.94486C36.41 7.01828 36.1347 5.22931 35.7219 3.71556C29.1165 6.05498 23.3367 9.77054 18.1074 14.4494L35.3091 31.651C37.6485 29.174 40.1255 26.9722 42.6026 25.0456Z" fill="#FF5C01"/>
<path d="M24.1625 42.1096C24.4377 42.3848 24.5753 42.5224 24.8505 42.7977C26.7771 40.3206 28.9789 37.8436 31.3184 35.3666L14.2543 18.0273C9.57548 23.2566 5.99754 29.174 3.52051 35.6418C5.17187 36.0546 6.82322 36.3299 8.74981 36.6051C13.4287 37.2931 18.658 37.9812 24.1625 42.1096Z" fill="#FF5C01"/>
<path d="M20.9971 46.3756C16.5935 43.0729 12.1899 42.5225 8.0615 41.972C5.9973 41.6968 3.93311 41.4215 1.86891 40.8711C-1.57142 53.8067 -0.195288 67.1552 5.44685 78.8523C9.1624 67.4304 14.6669 56.6966 21.8228 46.9261C21.41 46.7885 21.2724 46.5132 20.9971 46.3756Z" fill="#FF5C01"/>
<path d="M39.2998 92.2008C32.2815 84.3568 31.1806 75.412 30.0797 67.2928C29.254 61.1002 28.566 55.4581 25.4009 50.9169C17.9698 61.3755 12.3276 72.6597 9.0249 85.0449C11.0891 88.0724 13.2909 91.0999 16.0432 93.8521C32.0063 109.815 54.9877 114.081 74.6664 106.375C74.3911 106.375 74.1159 106.375 73.8407 106.375C60.905 106.375 47.1437 100.87 39.2998 92.2008Z" fill="#FF5C01"/>
<path d="M48.1803 23.0548C48.4555 23.33 48.5931 23.4676 48.7308 23.7429C58.3637 16.587 69.0975 11.0825 80.657 7.36691C73.3635 3.92658 65.2443 2 56.9875 2C52.3087 2 47.4922 2.68807 42.6758 3.92658C43.3638 5.99078 43.6391 8.05498 43.9143 10.2568C44.4648 14.3852 44.8776 18.7888 48.1803 23.0548Z" fill="white"/>
<path d="M95.7943 18.1007C93.1796 15.4861 90.2897 13.1467 87.2622 11.0825C74.8771 14.5228 63.3176 20.0273 52.9966 27.596C57.5378 30.6235 63.18 31.4492 69.3725 32.2749C77.3541 33.2382 86.4366 34.4767 94.2805 41.495C103.088 49.4765 108.592 63.5131 108.455 76.7239C115.886 56.9076 111.62 33.9263 95.7943 18.1007Z" fill="white"/>
<path d="M68.547 37.5042C61.5287 36.5409 54.3728 35.5776 48.3178 30.8988C45.8408 32.8253 43.3638 35.0272 40.8867 37.3666L97.4457 93.9256C107.767 80.7147 102.262 56.082 90.4274 45.3481C83.9596 39.4308 76.1157 38.4675 68.547 37.5042Z" fill="white"/>
<path d="M30.7036 48.5132C35.3825 54.4306 36.4834 61.5865 37.309 68.6047C38.2723 76.1735 39.3732 84.0174 45.153 90.6228C55.8868 102.458 80.5196 107.824 93.7304 97.5035L37.1714 41.0821C34.832 43.4215 32.6302 46.0362 30.7036 48.5132Z" fill="white"/>
<path d="M44.6026 27.0456C44.4649 26.7704 44.1897 26.6328 44.0521 26.3575C39.9237 20.853 39.2356 15.4861 38.6852 10.9449C38.41 9.01828 38.1347 7.22931 37.7219 5.71556C31.1165 8.05498 25.3367 11.7705 20.1074 16.4494L37.3091 33.651C39.6485 31.174 42.1255 28.9722 44.6026 27.0456Z" fill="white"/>
<path d="M26.1625 44.1096C26.4377 44.3848 26.5753 44.5224 26.8505 44.7977C28.7771 42.3206 30.9789 39.8436 33.3184 37.3666L16.2543 20.0273C11.5755 25.2566 7.99754 31.174 5.52051 37.6418C7.17187 38.0546 8.82322 38.3299 10.7498 38.6051C15.4287 39.2931 20.658 39.9812 26.1625 44.1096Z" fill="white"/>
<path d="M22.9971 48.3756C18.5935 45.0729 14.1899 44.5225 10.0615 43.972C7.9973 43.6968 5.93311 43.4215 3.86891 42.8711C0.428581 55.8067 1.80471 69.1552 7.44685 80.8523C11.1624 69.4304 16.6669 58.6966 23.8228 48.9261C23.41 48.7885 23.2724 48.5132 22.9971 48.3756Z" fill="white"/>
<path d="M41.2998 94.2008C34.2815 86.3568 33.1806 77.412 32.0797 69.2928C31.254 63.1002 30.566 57.4581 27.4009 52.9169C19.9698 63.3755 14.3276 74.6597 11.0249 87.0449C13.0891 90.0724 15.2909 93.0999 18.0432 95.8521C34.0063 111.815 56.9877 116.081 76.6664 108.375C76.3911 108.375 76.1159 108.375 75.8407 108.375C62.905 108.375 49.1437 102.87 41.2998 94.2008Z" fill="white"/>
</svg>
