<svg width="133" height="112" viewBox="0 0 133 112" fill="none" xmlns="http://www.w3.org/2000/svg">
<path fill-rule="evenodd" clip-rule="evenodd" d="M129.142 67.8602C128.463 63.9546 126.965 57.6545 125.941 53.9539C124.916 50.2404 115.876 26.7047 115.876 26.7047C115.351 25.9236 114.314 23.4138 112.751 22.0948C111.189 20.7631 97.7308 14.9496 94.8116 14.5911C91.8792 14.2325 91.1495 15.2185 88.9849 16.6527C88.233 17.1834 87.5185 17.7653 86.8465 18.3942C79.7423 17.1253 72.5377 16.5039 65.3211 16.5374C58.1046 16.5039 50.8999 17.1253 43.7957 18.3942C43.1237 17.7653 42.4093 17.1834 41.6574 16.6527C39.4934 15.2185 38.7637 14.2325 35.8313 14.5911C32.9114 14.9496 19.4536 20.7631 17.8917 22.0948C16.3292 23.4138 15.2919 25.9236 14.7667 26.7047C14.7667 26.7047 5.72691 50.2404 4.70213 53.9539C3.67797 57.6545 2.17925 63.9546 1.50086 67.8602C0.182207 75.2487 -0.726901 85.5312 4.79153 91.5239C6.0762 92.8901 7.65418 93.9468 9.40658 94.6144C11.159 95.2821 13.04 95.5432 14.908 95.3783C19.2998 94.9429 36.7279 78.6036 42.4258 73.4048H88.2171C93.915 78.6036 111.342 94.9429 115.735 95.3783C117.603 95.5433 119.484 95.2821 121.236 94.6145C122.988 93.9468 124.566 92.8901 125.851 91.5239C131.37 85.5311 130.461 75.2487 129.142 67.8602ZM28.9805 48.3068C27.0962 48.3068 25.2543 47.7481 23.6876 46.7013C22.1209 45.6545 20.8997 44.1665 20.1787 42.4257C19.4576 40.6849 19.2689 38.7693 19.6365 36.9213C20.0041 35.0732 20.9114 33.3757 22.2438 32.0433C23.5762 30.7109 25.2737 29.8036 27.1218 29.4359C28.9698 29.0683 30.8854 29.257 32.6262 29.9781C34.367 30.6991 35.855 31.9202 36.9018 33.4869C37.9486 35.0536 38.5074 36.8956 38.5074 38.7799C38.5079 40.0311 38.2619 41.2702 37.7833 42.4263C37.3048 43.5824 36.603 44.6329 35.7183 45.5177C34.8335 46.4024 33.7831 47.1042 32.6269 47.5827C31.4708 48.0613 30.2317 48.3074 28.9805 48.3068ZM97.4364 24.5918C98.4614 24.5906 99.4637 24.8934 100.316 25.4621C101.169 26.0308 101.834 26.8396 102.227 27.7864C102.62 28.7331 102.723 29.7751 102.523 30.7804C102.324 31.7858 101.83 32.7093 101.105 33.4341C100.381 34.1588 99.4571 34.6523 98.4517 34.8519C97.4464 35.0516 96.4044 34.9485 95.4577 34.5556C94.511 34.1628 93.7021 33.4979 93.1334 32.6452C92.5648 31.7924 92.2619 30.7901 92.2631 29.7651C92.2644 28.3935 92.8099 27.0784 93.7798 26.1085C94.7496 25.1386 96.0648 24.5931 97.4364 24.5918ZM70.7252 34.9639C71.5027 34.964 72.2627 35.1946 72.9091 35.6267C73.5555 36.0587 74.0594 36.6727 74.3568 37.391C74.6543 38.1093 74.7321 38.8997 74.5804 39.6623C74.4286 40.4248 74.0542 41.1252 73.5044 41.675C72.9546 42.2247 72.2542 42.5991 71.4916 42.7508C70.729 42.9024 69.9386 42.8245 69.2203 42.527C68.502 42.2294 67.8881 41.7256 67.4561 41.0791C67.0242 40.4326 66.7936 39.6726 66.7936 38.8951C66.7938 37.8525 67.208 36.8526 67.9453 36.1154C68.6826 35.3782 69.6826 34.964 70.7252 34.9639ZM51.0824 42.8263C50.3049 42.8263 49.5448 42.5958 48.8983 42.1638C48.2518 41.7319 47.7479 41.118 47.4503 40.3996C47.1528 39.6813 47.0749 38.8909 47.2266 38.1283C47.3782 37.3657 47.7526 36.6652 48.3024 36.1154C48.8521 35.5656 49.5526 35.1912 50.3152 35.0395C51.0778 34.8878 51.8682 34.9656 52.5865 35.2632C53.3049 35.5607 53.9188 36.0646 54.3508 36.711C54.7828 37.3575 55.0134 38.1176 55.0134 38.8951C55.011 39.9369 54.596 40.9354 53.8594 41.6722C53.1227 42.4089 52.1243 42.8238 51.0824 42.8263ZM70.7252 68.1291C68.8409 68.1291 66.999 67.5704 65.4323 66.5235C63.8656 65.4767 62.6445 63.9888 61.9234 62.248C61.2023 60.5071 61.0136 58.5916 61.3812 56.7435C61.7488 54.8955 62.6561 53.1979 63.9885 51.8655C65.3209 50.5332 67.0184 49.6258 68.8665 49.2582C70.7145 48.8906 72.6301 49.0793 74.3709 49.8003C76.1118 50.5214 77.5997 51.7425 78.6465 53.3092C79.6934 54.8759 80.2521 56.7178 80.2521 58.6021C80.2523 59.8533 80.006 61.0922 79.5273 62.2482C79.0486 63.4041 78.3469 64.4545 77.4622 65.3392C76.5775 66.2239 75.5272 66.9256 74.3712 67.4043C73.2153 67.883 71.9764 68.1293 70.7252 68.1291ZM88.486 44.0812C87.4615 44.0824 86.4597 43.7799 85.6072 43.2118C84.7548 42.6437 84.0899 41.8356 83.6967 40.8896C83.3035 39.9436 83.1996 38.9023 83.3982 37.8973C83.5968 36.8923 84.089 35.9688 84.8125 35.2435C85.536 34.5182 86.4583 34.0237 87.4628 33.8226C88.4673 33.6215 89.5089 33.7228 90.4558 34.1137C91.4028 34.5046 92.2125 35.1674 92.7827 36.0185C93.3529 36.8696 93.658 37.8707 93.6592 38.8951C93.6606 40.2687 93.1164 41.5867 92.1463 42.5592C91.1762 43.5317 89.8596 44.0791 88.486 44.0812ZM97.4495 53.3392C96.4251 53.338 95.424 53.033 94.5729 52.4629C93.7218 51.8927 93.0588 51.0829 92.6679 50.136C92.277 49.1891 92.1757 48.1475 92.3768 47.143C92.5779 46.1384 93.0723 45.2161 93.7976 44.4926C94.5228 43.7691 95.4464 43.2769 96.4514 43.0782C97.4564 42.8796 98.4977 42.9834 99.4437 43.3766C100.39 43.7698 101.198 44.4347 101.766 45.2872C102.334 46.1397 102.637 47.1415 102.635 48.166C102.635 48.8463 102.501 49.5199 102.24 50.1483C101.979 50.7766 101.597 51.3474 101.115 51.8278C100.633 52.3083 100.062 52.6891 99.4327 52.9485C98.8038 53.2078 98.1299 53.3406 97.4495 53.3392ZM106.297 44.0812C105.274 44.0798 104.273 43.7751 103.422 43.2054C102.572 42.6357 101.909 41.8267 101.517 40.8804C101.126 39.9342 101.024 38.8933 101.224 37.8892C101.425 36.8851 101.918 35.9628 102.642 35.2388C103.366 34.5148 104.288 34.0217 105.292 33.8217C106.296 33.6216 107.337 33.7237 108.283 34.1149C109.23 34.5062 110.039 35.1691 110.608 36.0199C111.178 36.8707 111.483 37.8712 111.484 38.8951C111.485 39.5765 111.352 40.2514 111.091 40.8811C110.831 41.5109 110.449 42.083 109.967 42.5648C109.485 43.0466 108.913 43.4286 108.283 43.6888C107.654 43.949 106.979 44.0823 106.297 44.0812Z" fill="#FF5C01"/>
<path fill-rule="evenodd" clip-rule="evenodd" d="M131.499 70.2174C130.82 66.3118 129.322 60.0117 128.298 56.3111C127.273 52.5976 118.232 29.0619 118.232 29.0619C117.708 28.2808 116.671 25.771 115.108 24.452C113.546 23.1203 100.088 17.3068 97.1685 16.9483C94.2361 16.5897 93.5064 17.5757 91.3418 19.0099C90.5899 19.5406 89.8754 20.1225 89.2035 20.7514C82.0993 19.4825 74.8946 18.8611 67.6781 18.8946C60.4615 18.8611 53.2568 19.4825 46.1527 20.7514C45.4807 20.1225 44.7662 19.5406 44.0143 19.0099C41.8503 17.5757 41.1207 16.5897 38.1883 16.9483C35.2683 17.3068 21.8106 23.1203 20.2487 24.452C18.6862 25.771 17.6489 28.2808 17.1237 29.0619C17.1237 29.0619 8.08384 52.5976 7.05906 56.3111C6.0349 60.0117 4.53618 66.3118 3.85779 70.2174C2.53914 77.6059 1.63003 87.8884 7.14847 93.8811C8.43313 95.2472 10.0111 96.3039 11.7635 96.9716C13.5159 97.6392 15.397 97.9004 17.265 97.7355C21.6567 97.3001 39.0848 80.9608 44.7827 75.762H90.574C96.2719 80.9608 113.699 97.3001 118.092 97.7355C119.96 97.9005 121.841 97.6393 123.593 96.9717C125.345 96.304 126.923 95.2473 128.208 93.8811C133.727 87.8883 132.818 77.6059 131.499 70.2174ZM31.3374 50.664C29.4532 50.664 27.6112 50.1053 26.0445 49.0585C24.4778 48.0116 23.2567 46.5237 22.5356 44.7829C21.8145 43.0421 21.6258 41.1265 21.9934 39.2785C22.361 37.4304 23.2684 35.7329 24.6007 34.4005C25.9331 33.0681 27.6306 32.1607 29.4787 31.7931C31.3268 31.4255 33.2423 31.6142 34.9831 32.3353C36.724 33.0563 38.2119 34.2774 39.2587 35.8441C40.3056 37.4108 40.8643 39.2528 40.8643 41.137C40.8649 42.3883 40.6188 43.6274 40.1403 44.7835C39.6617 45.9396 38.96 46.9901 38.0752 47.8748C37.1904 48.7596 36.14 49.4613 34.9839 49.9399C33.8278 50.4185 32.5887 50.6646 31.3374 50.664ZM99.7933 26.949C100.818 26.9478 101.821 27.2506 102.673 27.8193C103.526 28.388 104.191 29.1968 104.584 30.1436C104.977 31.0903 105.08 32.1323 104.88 33.1376C104.681 34.143 104.187 35.0665 103.462 35.7912C102.738 36.516 101.814 37.0095 100.809 37.2091C99.8033 37.4088 98.7613 37.3057 97.8146 36.9128C96.8679 36.52 96.059 35.8551 95.4903 35.0023C94.9217 34.1496 94.6188 33.1473 94.6201 32.1223C94.6214 30.7507 95.1668 29.4356 96.1367 28.4657C97.1066 27.4958 98.4217 26.9503 99.7933 26.949ZM73.0821 37.3211C73.8596 37.3212 74.6196 37.5518 75.2661 37.9839C75.9125 38.4159 76.4163 39.0298 76.7138 39.7482C77.0112 40.4665 77.089 41.2569 76.9373 42.0195C76.7856 42.782 76.4111 43.4824 75.8613 44.0322C75.3115 44.5819 74.6111 44.9563 73.8485 45.1079C73.086 45.2596 72.2956 45.1817 71.5773 44.8842C70.859 44.5866 70.245 44.0828 69.8131 43.4363C69.3811 42.7898 69.1506 42.0298 69.1506 41.2523C69.1507 40.2097 69.565 39.2098 70.3023 38.4726C71.0395 37.7353 72.0395 37.3212 73.0821 37.3211ZM53.4394 45.1835C52.6618 45.1835 51.9018 44.953 51.2553 44.521C50.6087 44.0891 50.1049 43.4752 49.8073 42.7568C49.5097 42.0385 49.4318 41.2481 49.5835 40.4855C49.7351 39.7229 50.1095 39.0224 50.6593 38.4726C51.2091 37.9228 51.9095 37.5484 52.6721 37.3967C53.4347 37.245 54.2251 37.3228 54.9435 37.6204C55.6618 37.9179 56.2758 38.4218 56.7078 39.0682C57.1397 39.7147 57.3703 40.4748 57.3703 41.2523C57.3679 42.2941 56.953 43.2926 56.2163 44.0293C55.4796 44.7661 54.4812 45.181 53.4394 45.1835ZM73.0821 70.4863C71.1979 70.4863 69.3559 69.9276 67.7892 68.8807C66.2225 67.8339 65.0014 66.346 64.2803 64.6052C63.5592 62.8643 63.3705 60.9488 63.7381 59.1007C64.1057 57.2527 65.0131 55.5551 66.3454 54.2227C67.6778 52.8904 69.3754 51.983 71.2234 51.6154C73.0715 51.2478 74.987 51.4364 76.7279 52.1575C78.4687 52.8786 79.9566 54.0997 81.0034 55.6664C82.0503 57.2331 82.609 59.075 82.609 60.9593C82.6092 62.2105 82.363 63.4494 81.8843 64.6054C81.4056 65.7613 80.7038 66.8117 79.8191 67.6964C78.9344 68.5811 77.8841 69.2828 76.7281 69.7615C75.5722 70.2402 74.3333 70.4865 73.0821 70.4863ZM90.8429 46.4383C89.8185 46.4396 88.8167 46.1371 87.9642 45.569C87.1117 45.0009 86.4468 44.1928 86.0536 43.2468C85.6604 42.3008 85.5565 41.2595 85.7551 40.2545C85.9538 39.2495 86.4459 38.3259 87.1694 37.6007C87.8929 36.8754 88.8152 36.3809 89.8197 36.1798C90.8242 35.9787 91.8658 36.08 92.8128 36.4709C93.7597 36.8617 94.5695 37.5246 95.1397 38.3757C95.7099 39.2268 96.0149 40.2279 96.0162 41.2523C96.0175 42.6259 95.4733 43.9439 94.5032 44.9164C93.5331 45.8889 92.2166 46.4363 90.8429 46.4383ZM99.8065 55.6964C98.782 55.6952 97.7809 55.3902 96.9298 54.82C96.0787 54.2499 95.4158 53.4401 95.0249 52.4932C94.634 51.5463 94.5326 50.5047 94.7337 49.5001C94.9348 48.4956 95.4292 47.5733 96.1545 46.8498C96.8798 46.1262 97.8033 45.6341 98.8083 45.4354C99.8133 45.2368 100.855 45.3406 101.801 45.7338C102.747 46.127 103.555 46.7919 104.123 47.6444C104.691 48.4969 104.994 49.4987 104.992 50.5232C104.992 51.2035 104.858 51.8771 104.597 52.5055C104.336 53.1338 103.954 53.7045 103.472 54.185C102.99 54.6655 102.419 55.0463 101.79 55.3057C101.161 55.565 100.487 55.6978 99.8065 55.6964ZM108.654 46.4383C107.63 46.437 106.63 46.1322 105.779 45.5626C104.928 44.9929 104.266 44.1838 103.874 43.2376C103.483 42.2914 103.381 41.2505 103.581 40.2464C103.781 39.2423 104.275 38.32 104.999 37.596C105.723 36.872 106.645 36.3789 107.649 36.1789C108.653 35.9788 109.694 36.0809 110.64 36.4721C111.587 36.8634 112.396 37.5263 112.965 38.3771C113.535 39.2279 113.84 40.2284 113.841 41.2523C113.842 41.9337 113.709 42.6086 113.448 43.2383C113.188 43.8681 112.806 44.4402 112.324 44.922C111.842 45.4038 111.27 45.7858 110.64 46.046C110.011 46.3062 109.336 46.4395 108.654 46.4383Z" fill="white"/>
</svg>
