<svg width="142" height="112" viewBox="0 0 142 112" fill="none" xmlns="http://www.w3.org/2000/svg">
<path fill-rule="evenodd" clip-rule="evenodd" d="M56.0605 20.3028H29.9811V27.6501H6.46947V86.4291H5V92.307H48.2187C51.647 95.5795 58.1612 97.791 65.6437 97.791C73.1263 97.791 79.6404 95.578 83.0702 92.307H125.497V86.4291H124.027V62.9175H128.467C131.841 62.9175 134.643 60.1916 134.643 56.8162C134.643 54.4475 132.844 52.424 131.375 51.4115V25.0756C132.844 24.3982 133.103 23.2079 133.103 21.8442C133.103 19.7297 131.357 18.0163 129.243 18.0163C127.128 18.0163 125.293 19.7297 125.293 21.8442C125.293 23.2079 125.498 24.3982 126.968 25.0756V51.1617H124.029V27.6501H103.455V20.3028H74.7655C74.0385 15.7929 70.128 12.3485 65.413 12.3485C60.698 12.3485 56.7876 15.7929 56.0605 20.3028ZM46.1453 34.9975V73.2038H13.8168V34.9975H46.1453ZM65.6452 91.8176C57.422 91.8176 50.755 90.1968 50.755 88.1998C50.755 86.2028 57.422 84.5819 65.6452 84.5819C73.8698 84.5819 80.5354 86.2028 80.5354 88.1998C80.5354 90.1968 73.8684 91.8176 65.6452 91.8176ZM81.4126 73.2038H49.0842V34.9975H81.4126V73.2038ZM116.68 73.2038H84.3516V34.9975H116.68V73.2038ZM22.2369 44.9105H18.8571V54.1902H22.0767C22.0767 54.1902 22.8996 50.9177 25.0451 51.1308C25.7983 51.2061 26.5094 51.3672 27.2311 51.5308L27.2311 51.5308C28.5664 51.8335 29.9379 52.1444 31.6798 51.9346C31.6798 51.9346 23.7931 56.3871 23.7931 64.0092H35.1139C35.1139 64.0092 34.3086 53.2762 40.6391 46.7855L38.2248 44.7459C38.2248 44.7459 35.8104 47.0515 30.607 45.0663C30.607 45.0663 26.5204 43.6585 22.2281 45.967L22.2369 44.9105ZM54.752 44.9105H58.1347L58.1244 45.967C62.4167 43.6585 66.5019 45.0663 66.5019 45.0663C71.7082 47.0515 74.1196 44.7459 74.1196 44.7459L76.5369 46.7855C70.205 53.2762 71.0117 64.0092 71.0117 64.0092H59.6879C59.6879 56.3871 67.5746 51.9346 67.5746 51.9346C65.8335 52.1445 64.4615 51.8334 63.1262 51.5307C62.4047 51.3672 61.6939 51.206 60.9414 51.1308C58.7945 50.9177 57.9716 54.1902 57.9716 54.1902H54.752V44.9105ZM93.8706 44.9105H90.4849V54.1902H93.7045C93.7045 54.1902 94.5289 50.9177 96.6743 51.1308C97.4266 51.206 98.137 51.3671 98.8582 51.5306C100.194 51.8333 101.566 52.1445 103.31 51.9346C103.31 51.9346 95.4238 56.3871 95.4238 64.0093H106.743C106.743 64.0093 105.935 53.2762 112.271 46.7856L109.853 44.7459C109.853 44.7459 107.438 47.0515 102.236 45.0663C102.236 45.0663 98.1526 43.6585 93.8574 45.9671L93.8706 44.9105Z" fill="#FF5C01"/>
<path fill-rule="evenodd" clip-rule="evenodd" d="M58.4175 22.6599H32.338V30.0073H8.82641V88.7862H7.35693V94.6641H50.5756C54.0039 97.9366 60.5181 100.148 68.0006 100.148C75.4832 100.148 81.9974 97.9352 85.4271 94.6641H127.854V88.7862H126.384V65.2746H130.824C134.198 65.2746 137 62.5488 137 59.1734C137 56.8046 135.201 54.7811 133.732 53.7687V27.4327C135.201 26.7553 135.46 25.565 135.46 24.2014C135.46 22.0868 133.714 20.3734 131.599 20.3734C129.485 20.3734 127.65 22.0868 127.65 24.2014C127.65 25.565 127.855 26.7553 129.325 27.4327V53.5188H126.386V30.0073H105.812V22.6599H77.1225C76.3954 18.15 72.4849 14.7056 67.77 14.7056C63.055 14.7056 59.1445 18.15 58.4175 22.6599ZM48.5022 37.3546V75.561H16.1738V37.3546H48.5022ZM68.0021 94.1748C59.7789 94.1748 53.1119 92.5539 53.1119 90.5569C53.1119 88.5599 59.7789 86.9391 68.0021 86.9391C76.2268 86.9391 82.8923 88.5599 82.8923 90.5569C82.8923 92.5539 76.2253 94.1748 68.0021 94.1748ZM83.7696 75.561H51.4411V37.3546H83.7696V75.561ZM119.037 75.561H86.7085V37.3546H119.037V75.561ZM24.5939 47.2676H21.2141V56.5474H24.4337C24.4337 56.5474 25.2566 53.2748 27.402 53.4879C28.1553 53.5632 28.8663 53.7244 29.588 53.888L29.5881 53.888C30.9233 54.1907 32.2949 54.5016 34.0367 54.2917C34.0367 54.2917 26.15 58.7442 26.15 66.3664H37.4709C37.4709 66.3664 36.6656 55.6333 42.9961 49.1427L40.5817 47.1031C40.5817 47.1031 38.1674 49.4087 32.964 47.4234C32.964 47.4234 28.8774 46.0156 24.585 48.3242L24.5939 47.2676ZM57.1089 47.2676H60.4916L60.4813 48.3242C64.7737 46.0156 68.8588 47.4234 68.8588 47.4234C74.0652 49.4087 76.4766 47.1031 76.4766 47.1031L78.8939 49.1427C72.5619 55.6333 73.3686 66.3664 73.3686 66.3664H62.0449C62.0449 58.7442 69.9315 54.2917 69.9315 54.2917C68.1904 54.5016 66.8185 54.1906 65.4831 53.8879C64.7616 53.7243 64.0509 53.5632 63.2983 53.4879C61.1514 53.2748 60.3285 56.5474 60.3285 56.5474H57.1089V47.2676ZM96.2278 47.2676H92.8421V56.5474H96.0617C96.0617 56.5474 96.8861 53.2748 99.0315 53.4879C99.7838 53.5631 100.494 53.7242 101.215 53.8877C102.551 54.1905 103.923 54.5016 105.668 54.2917C105.668 54.2917 97.781 58.7442 97.781 66.3664H109.1C109.1 66.3664 108.292 55.6333 114.629 49.1427L112.21 47.1031C112.21 47.1031 109.795 49.4087 104.593 47.4234C104.593 47.4234 100.51 46.0156 96.2146 48.3242L96.2278 47.2676Z" fill="white"/>
</svg>
