<svg width="52" height="52" viewBox="0 0 52 52" fill="none" xmlns="http://www.w3.org/2000/svg">
<path d="M29.5998 16.2492L44.5828 26.161C45.2133 26.5785 45.7094 27.0715 46.0666 27.6134C46.3923 28.1041 46.6029 28.6304 46.7006 29.1734C46.7237 29.2692 46.7379 29.3689 46.7422 29.4701C46.7592 29.638 46.7659 29.8064 46.7629 29.9767C46.7605 30.0835 46.7536 30.1903 46.7433 30.2971V35.5263C46.7433 36.2002 46.5377 37.0576 46.0078 37.8975C45.6166 38.5176 45.0453 39.1377 44.2465 39.6657L29.9372 49.1331C28.5384 50.0576 26.7562 50.5509 25.0163 50.5985C23.2555 50.646 21.4953 50.2359 20.1641 49.3553L5.18107 39.4435C4.53363 39.0143 4.04961 38.5036 3.70468 37.9701C3.67734 37.9322 3.65043 37.8932 3.62545 37.8523C3.18966 37.1304 3.00536 36.3736 3.00536 35.7126V30.2904C3.0004 30.192 2.99868 30.0938 3.00105 29.995L3.00536 29.8809V29.8486C3.00536 29.7472 3.01634 29.6483 3.03528 29.5525C3.12012 28.8963 3.36299 28.2518 3.76023 27.65C4.176 27.0226 4.7638 26.4368 5.51738 25.9381L19.8267 16.4714L19.9139 16.4182C20.3284 16.1521 20.7622 15.9262 21.2053 15.7419C21.3237 15.6932 21.4439 15.6461 21.5655 15.6022V12.7232C21.148 12.4657 20.7622 12.1606 20.4162 11.8151L20.4102 11.8097L20.4069 11.8067L20.4039 11.8034C19.2585 10.655 18.5493 9.07351 18.5493 7.3323C18.5493 5.58743 19.2585 4.00597 20.4033 2.86031L20.4095 2.85428C21.555 1.70926 23.1364 1.00003 24.8813 1.00003C26.6202 1.00003 28.199 1.70689 29.3464 2.84932L29.3527 2.85492L29.3557 2.85794L29.3587 2.86095C30.5044 4.00963 31.2136 5.59109 31.2136 7.3323C31.2136 9.07114 30.5067 10.65 29.3643 11.7974L29.3587 11.8034L29.3557 11.8067L29.3527 11.8097C29.0047 12.1563 28.6178 12.4627 28.1984 12.7222V15.5449L28.3719 15.6114C28.8094 15.7865 29.2239 15.9996 29.5998 16.2492ZM42.9269 28.662L28.1984 18.9188V24.6553C28.3876 24.7156 28.5732 24.7815 28.7556 24.8523C29.3238 25.0739 29.858 25.3492 30.3431 25.6696C31.1109 26.1767 31.7103 26.7737 32.1375 27.4182C32.671 28.2249 32.9382 29.1015 32.9382 29.9851C32.9382 30.8689 32.671 31.7459 32.1375 32.5529C31.7103 33.1973 31.1109 33.7937 30.3431 34.3014C29.1445 35.0942 27.6773 35.5771 26.1618 35.7509C26.5304 35.8603 26.8807 36.0183 27.1933 36.2252C27.549 36.4608 27.8377 36.7501 28.0513 37.0735L28.0543 37.0718C28.3394 37.502 28.4828 37.9763 28.4828 38.4565C28.4828 38.9368 28.3394 39.4112 28.0543 39.8413C27.844 40.1594 27.5559 40.4487 27.1933 40.6886C26.5293 41.1274 25.693 41.347 24.882 41.347C24.0709 41.347 23.2346 41.1274 22.5706 40.6886C22.2143 40.4524 21.9255 40.1617 21.7126 39.8396L21.7096 39.8407C21.4245 39.4105 21.2811 38.9362 21.2811 38.456C21.2811 37.9757 21.4245 37.5014 21.7096 37.0712C21.9199 36.7538 22.208 36.4644 22.5706 36.2252C22.8832 36.0183 23.2335 35.8603 23.6022 35.7509C22.0866 35.5771 20.6188 35.0942 19.4208 34.3014C18.653 33.7937 18.0536 33.1973 17.6264 32.5529C17.0929 31.7448 16.8257 30.8683 16.8257 29.9851C16.8257 29.1015 17.0942 28.2239 17.6271 27.4182C18.0543 26.7731 18.6535 26.1773 19.4208 25.6696C19.9115 25.3443 20.4461 25.0715 21.007 24.853H21.013C21.1943 24.7828 21.378 24.7175 21.5655 24.657V18.9158L21.5459 18.9278L21.4824 18.9724L7.17398 28.4392C6.76554 28.7089 6.46044 29.0056 6.26149 29.306C6.12908 29.5067 6.04468 29.7056 6.01173 29.8942V30.2501C6.03929 30.4015 6.10152 30.5539 6.19862 30.7012C6.33836 30.9135 6.55259 31.1198 6.83702 31.3084L21.82 41.2206C22.6274 41.7548 23.7656 42.002 24.9461 41.9697C26.1465 41.9372 27.3563 41.6101 28.2815 40.998L42.5899 31.5312C42.999 31.2608 43.3041 30.9654 43.5031 30.6644C43.6185 30.49 43.6966 30.3167 43.7369 30.1513V29.6477C43.704 29.5207 43.6471 29.3926 43.5653 29.2692C43.4256 29.0575 43.212 28.8506 42.9269 28.662ZM6.53666 36.6573L21.82 46.854C22.6274 47.3886 23.7651 47.6354 24.9455 47.6035C26.146 47.5712 27.3557 47.2435 28.2815 46.6318L42.5899 37.165C43.0057 36.8905 43.2895 36.5895 43.4714 36.3008C43.6618 35.9987 43.7369 35.7242 43.7369 35.5263V34.3699L29.9372 43.499C28.539 44.4244 26.7575 44.9175 25.0167 44.9644C23.2562 45.0127 21.4953 44.6025 20.1641 43.7219L6.01173 34.3593V35.7126C6.01173 35.8816 6.06685 36.0891 6.19669 36.3034L6.53666 36.6573ZM24.5719 16.7192V25.8191V28.9195C24.5719 29.0026 24.6072 29.0801 24.6641 29.1374C24.7209 29.1943 24.7984 29.2296 24.882 29.2296C24.9655 29.2296 25.043 29.1943 25.0999 29.1374C25.1567 29.0801 25.192 29.0026 25.192 28.9195V25.8191V16.669V13.6564L25.1115 13.6601L24.9631 13.6637H24.9552L24.8813 13.6644L24.8075 13.6637H24.7995L24.6524 13.6601L24.5719 13.6564V16.7192ZM21.5655 27.8862C21.3946 27.9737 21.2303 28.0682 21.0766 28.1707C20.6541 28.4501 20.338 28.7572 20.1281 29.0739C19.9309 29.3719 19.8321 29.6837 19.8321 29.9851C19.8321 30.2878 19.9309 30.5992 20.1275 30.8965C20.3374 31.2132 20.6537 31.5207 21.0766 31.8004C22.1008 32.4777 23.4811 32.8171 24.882 32.8171C26.2828 32.8171 27.6631 32.4777 28.6874 31.8004C29.1102 31.5207 29.4272 31.2126 29.6364 30.8965C29.833 30.5998 29.9318 30.2878 29.9318 29.9851C29.9318 29.6837 29.833 29.3719 29.6364 29.0739C29.4272 28.7578 29.1102 28.4501 28.6874 28.1707C28.531 28.0675 28.368 27.9724 28.1984 27.8856V28.9195C28.1984 29.8333 27.825 30.6633 27.2256 31.2632C26.6262 31.8626 25.7955 32.2362 24.882 32.2362C23.9684 32.2362 23.1377 31.8626 22.5383 31.2632C21.9389 30.6633 21.5655 29.8333 21.5655 28.9195V27.8862ZM23.56 10.3876C23.6065 10.4041 23.6528 10.4224 23.698 10.4431C24.027 10.5676 24.3816 10.6414 24.7526 10.6554H24.7569L24.7739 10.656H24.7769L24.7948 10.6567H24.7984L24.8161 10.6573L24.8387 10.658H24.8813H24.9242L24.9461 10.6573L24.9655 10.6567H24.9681L24.987 10.656H24.9894L25.0071 10.6554H25.0101C25.3757 10.642 25.7266 10.5695 26.0513 10.4481L26.0752 10.4394L26.1185 10.4224L26.1318 10.4168L26.1501 10.4095C26.5597 10.2422 26.9272 9.99504 27.2329 9.6893L27.2385 9.68392C27.8367 9.08578 28.207 8.25447 28.207 7.3323C28.207 6.41013 27.8367 5.57881 27.2385 4.98068L27.2329 4.97508C26.6348 4.37695 25.8035 4.00662 24.8813 4.00662C23.9611 4.00662 23.1285 4.37759 22.5267 4.97766C21.9268 5.57946 21.5556 6.41185 21.5556 7.3323C21.5556 8.25447 21.9262 9.08578 22.5243 9.68392L22.5297 9.6893C22.8227 9.98234 23.1717 10.2203 23.56 10.3876Z" fill="#FF5C01"/>
<path d="M30.9978 17.647L45.9808 27.5588C46.6112 27.9763 47.1073 28.4693 47.4645 29.0113C47.7903 29.502 48.0008 30.0282 48.0986 30.5712C48.1216 30.667 48.1358 30.7667 48.1401 30.8679C48.1572 31.0358 48.1638 31.2042 48.1608 31.3745C48.1584 31.4813 48.1516 31.5881 48.1412 31.6949V36.9241C48.1412 37.5981 47.9356 38.4554 47.4057 39.2954C47.0145 39.9154 46.4433 40.5355 45.6445 41.0635L31.3352 50.5309C29.9363 51.4554 28.1542 51.9487 26.4143 51.9963C24.6535 52.0439 22.8933 51.6337 21.562 50.7531L6.57902 40.8413C5.93158 40.4122 5.44756 39.9015 5.10263 39.3679C5.07529 39.33 5.04838 39.291 5.0234 39.2501C4.58761 38.5282 4.40331 37.7714 4.40331 37.1104V31.6882C4.39835 31.5898 4.39663 31.4916 4.399 31.3928L4.40331 31.2787V31.2464C4.40331 31.145 4.41429 31.0462 4.43323 30.9504C4.51807 30.2941 4.76094 29.6497 5.15818 29.0479C5.57395 28.4205 6.16174 27.8346 6.91533 27.3359L21.2246 17.8692L21.3118 17.816C21.7263 17.5499 22.1602 17.324 22.6033 17.1397C22.7217 17.0911 22.8418 17.0439 22.9635 17V14.1211C22.546 13.8636 22.1602 13.5585 21.8142 13.2129L21.8081 13.2075L21.8049 13.2045L21.8019 13.2013C20.6564 12.0528 19.9472 10.4713 19.9472 8.73013C19.9472 6.98525 20.6564 5.4038 21.8012 4.25813L21.8075 4.25211C22.9529 3.10709 24.5344 2.39785 26.2793 2.39785C28.0181 2.39785 29.597 3.10472 30.7444 4.24715L30.7506 4.25275L30.7536 4.25576L30.7566 4.25878C31.9023 5.40746 32.6115 6.98891 32.6115 8.73013C32.6115 10.469 31.9047 12.0478 30.7622 13.1952L30.7566 13.2013L30.7536 13.2045L30.7506 13.2075C30.4027 13.5542 30.0158 13.8605 29.5963 14.12V16.9427L29.7699 17.0092C30.2074 17.1843 30.6219 17.3974 30.9978 17.647ZM44.3248 30.0598L29.5963 20.3166V26.0531C29.7856 26.1134 29.9712 26.1793 30.1536 26.2501C30.7218 26.4717 31.2559 26.7471 31.741 27.0675C32.5088 27.5745 33.1083 28.1716 33.5354 28.816C34.069 29.6228 34.3362 30.4993 34.3362 31.3829C34.3362 32.2668 34.069 33.1437 33.5354 33.9507C33.1083 34.5951 32.5088 35.1915 31.741 35.6992C30.5424 36.492 29.0753 36.975 27.5597 37.1487C27.9283 37.2581 28.2786 37.4161 28.5913 37.623C28.947 37.8586 29.2357 38.148 29.4493 38.4714L29.4523 38.4696C29.7374 38.8998 29.8808 39.3742 29.8808 39.8543C29.8808 40.3347 29.7374 40.809 29.4523 41.2392C29.2419 41.5572 28.9538 41.8466 28.5913 42.0864C27.9272 42.5252 27.091 42.7448 26.2799 42.7448C25.4688 42.7448 24.6326 42.5252 23.9686 42.0864C23.6122 41.8502 23.3235 41.5596 23.1105 41.2375L23.1075 41.2385C22.8225 40.8083 22.6791 40.334 22.6791 39.8539C22.6791 39.3735 22.8225 38.8992 23.1075 38.469C23.3179 38.1516 23.606 37.8622 23.9686 37.623C24.2812 37.4161 24.6315 37.2581 25.0001 37.1487C23.4845 36.975 22.0168 36.492 20.8188 35.6992C20.051 35.1915 19.4516 34.5951 19.0244 33.9507C18.4908 33.1426 18.2236 32.2661 18.2236 31.3829C18.2236 30.4993 18.4921 29.6217 19.025 28.816C19.4522 28.1709 20.0514 27.5752 20.8188 27.0675C21.3095 26.7421 21.8441 26.4693 22.405 26.2508H22.411C22.5923 26.1806 22.7759 26.1154 22.9635 26.0548V20.3136L22.9439 20.3257L22.8804 20.3702L8.57193 29.837C8.16348 30.1068 7.85839 30.4035 7.65944 30.7038C7.52703 30.9045 7.44263 31.1034 7.40968 31.2921V31.648C7.43724 31.7993 7.49947 31.9518 7.59657 32.099C7.73631 32.3113 7.95054 32.5176 8.23497 32.7062L23.218 42.6185C24.0254 43.1526 25.1635 43.3998 26.3441 43.3675C27.5444 43.335 28.7543 43.0079 29.6794 42.3958L43.9879 32.9291C44.397 32.6586 44.7021 32.3632 44.901 32.0622C45.0164 31.8878 45.0946 31.7145 45.1348 31.5491V31.0455C45.1019 30.9185 45.0451 30.7904 44.9632 30.667C44.8235 30.4554 44.6099 30.2484 44.3248 30.0598ZM7.93461 38.0552L23.218 48.2518C24.0254 48.7864 25.1631 49.0332 26.3434 49.0013C27.544 48.969 28.7536 48.6413 29.6794 48.0296L43.9879 38.5629C44.4036 38.2883 44.6874 37.9873 44.8694 37.6986C45.0597 37.3965 45.1348 37.122 45.1348 36.9241V35.7677L31.3352 44.8969C29.937 45.8223 28.1555 46.3153 26.4147 46.3623C24.6541 46.4105 22.8933 46.0003 21.562 45.1197L7.40968 35.7572V37.1104C7.40968 37.2794 7.4648 37.487 7.59463 37.7012L7.93461 38.0552ZM25.9699 18.117V27.2169V30.3173C25.9699 30.4005 26.0052 30.478 26.062 30.5352C26.1189 30.5921 26.1964 30.6274 26.2799 30.6274C26.3634 30.6274 26.441 30.5921 26.4978 30.5352C26.5546 30.478 26.59 30.4005 26.59 30.3173V27.2169V18.0668V15.0542L26.5094 15.0579L26.3611 15.0615H26.3531L26.2793 15.0622L26.2054 15.0615H26.1974L26.0504 15.0579L25.9699 15.0542V18.117ZM22.9635 29.2841C22.7925 29.3715 22.6282 29.466 22.4745 29.5685C22.0521 29.848 21.736 30.155 21.5261 30.4717C21.3288 30.7697 21.23 31.0815 21.23 31.3829C21.23 31.6856 21.3288 31.997 21.5254 32.2943C21.7354 32.611 22.0516 32.9185 22.4745 33.1982C23.4987 33.8756 24.8791 34.2149 26.2799 34.2149C27.6807 34.2149 29.0611 33.8756 30.0853 33.1982C30.5082 32.9185 30.8251 32.6104 31.0344 32.2943C31.231 31.9976 31.3298 31.6856 31.3298 31.3829C31.3298 31.0815 31.231 30.7697 31.0344 30.4717C30.8251 30.1556 30.5082 29.848 30.0853 29.5685C29.929 29.4654 29.766 29.3702 29.5963 29.2834V30.3173C29.5963 31.2311 29.223 32.0611 28.6236 32.661C28.0241 33.2604 27.1935 33.634 26.2799 33.634C25.3663 33.634 24.5357 33.2604 23.9363 32.661C23.3368 32.0611 22.9635 31.2311 22.9635 30.3173V29.2841ZM24.9579 11.7854C25.0044 11.802 25.0507 11.8203 25.0959 11.8409C25.4249 11.9654 25.7795 12.0392 26.1505 12.0532H26.1548L26.1718 12.0539H26.1748L26.1927 12.0545H26.1964L26.214 12.0552L26.2366 12.0558H26.2793H26.3221L26.3441 12.0552L26.3634 12.0545H26.366L26.385 12.0539H26.3873L26.405 12.0532H26.408C26.7736 12.0399 27.1246 11.9673 27.4493 11.8459L27.4732 11.8373L27.5164 11.8203L27.5298 11.8147L27.5481 11.8073C27.9576 11.64 28.3251 11.3929 28.6309 11.0871L28.6365 11.0817C29.2346 10.4836 29.6049 9.6523 29.6049 8.73013C29.6049 7.80795 29.2346 6.97664 28.6365 6.37851L28.6309 6.37291C28.0327 5.77478 27.2014 5.40445 26.2793 5.40445C25.359 5.40445 24.5264 5.77542 23.9246 6.37549C23.3248 6.97728 22.9536 7.80968 22.9536 8.73013C22.9536 9.6523 23.3241 10.4836 23.9223 11.0817L23.9276 11.0871C24.2207 11.3802 24.5697 11.6181 24.9579 11.7854Z" fill="white"/>
</svg>
