<svg width="166" height="166" viewBox="0 0 166 166" fill="none" xmlns="http://www.w3.org/2000/svg">
<path d="M90.1791 55.5931V26.3479C90.1791 25.5779 89.8593 24.8723 89.3519 24.3649C88.8446 23.8575 88.1389 23.5377 87.3689 23.5377H20.3479C19.5779 23.5377 18.8723 23.8575 18.3649 24.3649C17.8575 24.8723 17.5377 25.5779 17.5377 26.3479V66.4676C17.5377 67.2394 17.8557 67.9451 18.3631 68.4524C18.8705 68.9598 19.5761 69.2778 20.3479 69.2778H32.3658C33.6181 69.2778 34.6347 70.2943 34.6347 71.5467V80.5578L47.3832 69.8191C47.8066 69.4636 48.3229 69.2885 48.8374 69.2885L71.9549 69.2778V62.9393C71.9549 60.9241 72.782 59.084 74.1166 57.753C75.4404 56.4185 77.2787 55.5931 79.3028 55.5931H90.1791ZM61.1054 127.591C50.4328 121.676 46.3042 115.397 45.7593 110.487C45.4145 107.364 46.4542 104.731 48.2318 102.939C50.0326 101.126 52.582 100.195 55.2224 100.483C57.6824 100.751 60.2104 102.069 62.2041 104.706C64.1979 102.069 66.724 100.753 69.1858 100.485C71.8263 100.197 74.3774 101.128 76.1764 102.941C77.954 104.731 78.9973 107.361 78.6489 110.489C78.1059 115.395 73.9772 121.676 63.3028 127.591C62.5954 127.984 61.7664 127.956 61.1054 127.591ZM50.2613 109.991C50.6525 113.505 53.8754 118.169 62.2041 123.016C70.5364 118.167 73.7575 113.505 74.1469 109.992C74.331 108.34 73.8307 107 72.9678 106.132C72.1264 105.285 70.9187 104.851 69.6646 104.987C67.7405 105.196 65.6592 106.762 64.314 110.201C64.0907 110.771 63.6423 111.248 63.0277 111.488C61.8629 111.941 60.548 111.366 60.0942 110.201C58.7508 106.764 56.6677 105.196 54.7436 104.985C53.4895 104.849 52.2818 105.283 51.4404 106.13C50.5775 107 50.0791 108.34 50.2613 109.991ZM107.492 68.6793L123.805 78.0978C124.684 78.6052 125.389 79.3144 125.879 80.1612C126.37 81.0027 126.629 81.971 126.631 83.0018C126.629 84.0326 126.37 85.0027 125.883 85.8459L125.784 86.0013C125.3 86.7785 124.63 87.4305 123.803 87.9075L107.49 97.3207C106.594 97.8423 105.623 98.1032 104.655 98.1032C103.687 98.1032 102.719 97.8441 101.82 97.3242C100.941 96.8169 100.235 96.1076 99.7459 95.2608C99.2564 94.4212 98.9955 93.4511 98.9937 92.4203L98.9848 73.5851C98.9848 72.5686 99.2492 71.6038 99.7405 70.7517C100.228 69.8995 100.936 69.1921 101.822 68.6811C102.72 68.163 103.69 67.9004 104.657 67.9004C105.627 67.9004 106.597 68.1612 107.492 68.6793ZM121.536 82.0138L105.223 72.5954C105.043 72.4917 104.848 72.4381 104.657 72.4381C104.468 72.4381 104.273 72.4917 104.091 72.5971C103.896 72.7097 103.748 72.8526 103.657 73.0116C103.569 73.1581 103.523 73.3564 103.523 73.5851V92.4203C103.514 92.6329 103.564 92.8312 103.658 92.9937C103.744 93.1527 103.894 93.2957 104.089 93.4082C104.269 93.5118 104.464 93.5654 104.655 93.5654C104.846 93.5654 105.043 93.5118 105.223 93.4082L121.534 83.9915C121.704 83.8932 121.84 83.7736 121.929 83.6467L121.966 83.577C122.059 83.4163 122.111 83.2144 122.111 83.0018C122.111 82.7892 122.059 82.5891 121.966 82.4283C121.879 82.2675 121.731 82.1264 121.536 82.0138ZM49.134 41.9084H50.297C55.469 39.4645 56.4069 35.6896 57.0607 33.0509C57.577 30.9732 57.979 29.3439 59.6297 28.3524C60.5748 27.7771 61.6592 27.561 62.7025 27.6753C63.7459 27.7896 64.757 28.2452 65.5556 29.0063C65.7718 29.2117 65.9379 29.4511 66.054 29.7066C67.678 32.8187 67.8977 35.6199 67.3796 38.2622C67.1027 39.6592 66.6257 40.9741 66.0487 42.2479C66.9259 42.5552 67.7137 43.0572 68.3569 43.7003L68.5016 43.8593C69.5181 44.9509 70.1487 46.4158 70.1487 48.0147V59.0715C70.1487 60.7436 69.4591 62.2711 68.3569 63.377C67.2528 64.49 65.7235 65.1778 64.0442 65.1778H49.134H49.075H47.4154H47.3564H39.8388C38.5864 65.1778 37.5699 64.1612 37.5699 62.9089V44.1773C37.5699 42.925 38.5864 41.9084 39.8388 41.9084H47.3564H47.4154H49.075H49.134ZM51.3439 60.64H64.0442C64.4712 60.64 64.8642 60.4614 65.1483 60.1773C65.4323 59.8986 65.611 59.5038 65.611 59.0715V48.0147C65.611 47.6217 65.4627 47.2573 65.2215 46.9786L65.1483 46.9089C64.8642 46.6248 64.4712 46.4462 64.0442 46.4462H62.5382C62.1755 46.4408 61.8075 46.3551 61.4663 46.1711C60.3658 45.5797 59.9531 44.2059 60.5444 43.1054C61.5735 41.1921 62.5578 39.2876 62.9312 37.3939C63.2456 35.7896 63.1367 34.0817 62.2398 32.1827L62.2059 32.1773C62.1273 32.1702 62.0398 32.1862 61.9683 32.2291C61.9254 32.2488 61.7164 33.0777 61.4556 34.1335C60.5712 37.7012 59.2975 42.8339 51.8566 46.1711C51.6958 46.2586 51.5243 46.3283 51.3439 46.3747V60.64ZM46.8062 46.4462H42.1076V60.64H46.8062V46.4462ZM58.2702 131.593L88.4676 131.588C88.9357 131.588 89.3662 131.393 89.6753 131.084L89.7575 131.005C90.0183 130.709 90.1791 130.312 90.1791 129.876V98.4337C90.1791 97.9656 89.9844 97.5351 89.6753 97.226L89.6038 97.151C89.3001 96.8866 88.9017 96.7222 88.4676 96.7222H35.9424C35.4743 96.7222 35.0438 96.9169 34.7347 97.226C34.4256 97.5351 34.2309 97.9656 34.2309 98.4337V129.876C34.2309 130.352 34.4221 130.78 34.7258 131.084C35.0384 131.397 35.4672 131.588 35.9424 131.588H45.3609C46.6132 131.588 47.6297 132.604 47.6297 133.857V139.866L56.816 132.129C57.2394 131.774 57.7557 131.598 58.2702 131.593ZM88.4676 136.125H59.0813L46.9795 146.319C46.5686 146.739 45.9951 147 45.3609 147C44.1085 147 43.092 145.983 43.092 144.731V136.125H35.9424C34.2309 136.125 32.6713 135.425 31.5386 134.296C30.3953 133.151 29.6932 131.59 29.6932 129.876V98.4337C29.6932 96.7133 30.3953 95.1483 31.5261 94.0174C32.657 92.8866 34.222 92.1845 35.9424 92.1845H71.9549V73.8155H49.6485L33.9844 87.0107C33.5735 87.4305 33 87.6914 32.3658 87.6914C31.1134 87.6914 30.0969 86.6749 30.0969 85.4225V73.8155H20.3479C18.3238 73.8155 16.4837 72.9902 15.1545 71.661C13.8254 70.3318 13 68.4917 13 66.4676V26.3479C13 24.3256 13.8289 22.4837 15.1563 21.1563C16.4837 19.8289 18.3256 19 20.3479 19H87.3689C89.3912 19 91.2331 19.8289 92.5605 21.1563C93.8879 22.4837 94.7168 24.3256 94.7168 26.3479V55.5931H146.324C148.346 55.5931 150.186 56.4185 151.515 57.7477C152.845 59.0768 153.67 60.9169 153.67 62.9393V103.061C153.67 105.085 152.845 106.923 151.515 108.252C150.186 109.582 148.348 110.407 146.324 110.407H136.575V122.014C136.575 123.266 135.558 124.283 134.306 124.283C133.672 124.283 133.098 124.022 132.687 123.602L117.023 110.407H94.7168V129.876C94.7168 131.518 94.0719 133.021 93.025 134.139L92.8839 134.293C91.753 135.423 90.188 136.125 88.4676 136.125ZM76.4926 92.1845H88.4676C90.1094 92.1845 91.6101 92.8294 92.7284 93.8763L92.8839 94.0174C94.0147 95.1483 94.7168 96.7133 94.7168 98.4337V105.869H117.834C118.349 105.88 118.865 106.055 119.289 106.41L132.037 117.149V108.138C132.037 106.886 133.054 105.869 134.306 105.869H146.324C147.096 105.869 147.799 105.551 148.307 105.044C148.814 104.536 149.132 103.833 149.132 103.061V62.9393C149.132 62.1693 148.814 61.4636 148.307 60.9562C147.799 60.4489 147.094 60.1309 146.324 60.1309H79.3028C78.531 60.1309 77.8272 60.4489 77.3198 60.9562C76.8053 61.46 76.4926 62.1639 76.4926 62.9393V92.1845Z" fill="#FF5C01"/>
<path d="M91.1791 56.5931V27.3479C91.1791 26.5779 90.8593 25.8723 90.3519 25.3649C89.8446 24.8575 89.1389 24.5377 88.3689 24.5377H21.3479C20.5779 24.5377 19.8723 24.8575 19.3649 25.3649C18.8575 25.8723 18.5377 26.5779 18.5377 27.3479V67.4676C18.5377 68.2394 18.8557 68.9451 19.3631 69.4524C19.8705 69.9598 20.5761 70.2778 21.3479 70.2778H33.3658C34.6181 70.2778 35.6347 71.2943 35.6347 72.5467V81.5578L48.3832 70.8191C48.8066 70.4636 49.3229 70.2885 49.8374 70.2885L72.9549 70.2778V63.9393C72.9549 61.9241 73.782 60.084 75.1166 58.753C76.4404 57.4185 78.2787 56.5931 80.3028 56.5931H91.1791ZM62.1054 128.591C51.4328 122.676 47.3042 116.397 46.7593 111.487C46.4145 108.364 47.4542 105.731 49.2318 103.939C51.0326 102.126 53.582 101.195 56.2224 101.483C58.6824 101.751 61.2104 103.069 63.2041 105.706C65.1979 103.069 67.724 101.753 70.1858 101.485C72.8263 101.197 75.3774 102.128 77.1764 103.941C78.954 105.731 79.9973 108.361 79.6489 111.489C79.1059 116.395 74.9772 122.676 64.3028 128.591C63.5954 128.984 62.7664 128.956 62.1054 128.591ZM51.2613 110.991C51.6525 114.505 54.8754 119.169 63.2041 124.016C71.5364 119.167 74.7575 114.505 75.1469 110.992C75.331 109.34 74.8307 108 73.9678 107.132C73.1264 106.285 71.9187 105.851 70.6646 105.987C68.7405 106.196 66.6592 107.762 65.314 111.201C65.0907 111.771 64.6423 112.248 64.0277 112.488C62.8629 112.941 61.548 112.366 61.0942 111.201C59.7508 107.764 57.6677 106.196 55.7436 105.985C54.4895 105.849 53.2818 106.283 52.4404 107.13C51.5775 108 51.0791 109.34 51.2613 110.991ZM108.492 69.6793L124.805 79.0978C125.684 79.6052 126.389 80.3144 126.879 81.1612C127.37 82.0027 127.629 82.971 127.631 84.0018C127.629 85.0326 127.37 86.0027 126.883 86.8459L126.784 87.0013C126.3 87.7785 125.63 88.4305 124.803 88.9075L108.49 98.3207C107.594 98.8423 106.623 99.1032 105.655 99.1032C104.687 99.1032 103.719 98.8441 102.82 98.3242C101.941 97.8169 101.235 97.1076 100.746 96.2608C100.256 95.4212 99.9955 94.4511 99.9937 93.4203L99.9848 74.5851C99.9848 73.5686 100.249 72.6038 100.741 71.7517C101.228 70.8995 101.936 70.1921 102.822 69.6811C103.72 69.163 104.69 68.9004 105.657 68.9004C106.627 68.9004 107.597 69.1612 108.492 69.6793ZM122.536 83.0138L106.223 73.5954C106.043 73.4917 105.848 73.4381 105.657 73.4381C105.468 73.4381 105.273 73.4917 105.091 73.5971C104.896 73.7097 104.748 73.8526 104.657 74.0116C104.569 74.1581 104.523 74.3564 104.523 74.5851V93.4203C104.514 93.6329 104.564 93.8312 104.658 93.9937C104.744 94.1527 104.894 94.2957 105.089 94.4082C105.269 94.5118 105.464 94.5654 105.655 94.5654C105.846 94.5654 106.043 94.5118 106.223 94.4082L122.534 84.9915C122.704 84.8932 122.84 84.7736 122.929 84.6467L122.966 84.577C123.059 84.4163 123.111 84.2144 123.111 84.0018C123.111 83.7892 123.059 83.5891 122.966 83.4283C122.879 83.2675 122.731 83.1264 122.536 83.0138ZM50.134 42.9084H51.297C56.469 40.4645 57.4069 36.6896 58.0607 34.0509C58.577 31.9732 58.979 30.3439 60.6297 29.3524C61.5748 28.7771 62.6592 28.561 63.7025 28.6753C64.7459 28.7896 65.757 29.2452 66.5556 30.0063C66.7718 30.2117 66.9379 30.4511 67.054 30.7066C68.678 33.8187 68.8977 36.6199 68.3796 39.2622C68.1027 40.6592 67.6257 41.9741 67.0487 43.2479C67.9259 43.5552 68.7137 44.0572 69.3569 44.7003L69.5016 44.8593C70.5181 45.9509 71.1487 47.4158 71.1487 49.0147V60.0715C71.1487 61.7436 70.4591 63.2711 69.3569 64.377C68.2528 65.49 66.7235 66.1778 65.0442 66.1778H50.134H50.075H48.4154H48.3564H40.8388C39.5864 66.1778 38.5699 65.1612 38.5699 63.9089V45.1773C38.5699 43.925 39.5864 42.9084 40.8388 42.9084H48.3564H48.4154H50.075H50.134ZM52.3439 61.64H65.0442C65.4712 61.64 65.8642 61.4614 66.1483 61.1773C66.4323 60.8986 66.611 60.5038 66.611 60.0715V49.0147C66.611 48.6217 66.4627 48.2573 66.2215 47.9786L66.1483 47.9089C65.8642 47.6248 65.4712 47.4462 65.0442 47.4462H63.5382C63.1755 47.4408 62.8075 47.3551 62.4663 47.1711C61.3658 46.5797 60.9531 45.2059 61.5444 44.1054C62.5735 42.1921 63.5578 40.2876 63.9312 38.3939C64.2456 36.7896 64.1367 35.0817 63.2398 33.1827L63.2059 33.1773C63.1273 33.1702 63.0398 33.1862 62.9683 33.2291C62.9254 33.2488 62.7164 34.0777 62.4556 35.1335C61.5712 38.7012 60.2975 43.8339 52.8566 47.1711C52.6958 47.2586 52.5243 47.3283 52.3439 47.3747V61.64ZM47.8062 47.4462H43.1076V61.64H47.8062V47.4462ZM59.2702 132.593L89.4676 132.588C89.9357 132.588 90.3662 132.393 90.6753 132.084L90.7575 132.005C91.0183 131.709 91.1791 131.312 91.1791 130.876V99.4337C91.1791 98.9656 90.9844 98.5351 90.6753 98.226L90.6038 98.151C90.3001 97.8866 89.9017 97.7222 89.4676 97.7222H36.9424C36.4743 97.7222 36.0438 97.9169 35.7347 98.226C35.4256 98.5351 35.2309 98.9656 35.2309 99.4337V130.876C35.2309 131.352 35.4221 131.78 35.7258 132.084C36.0384 132.397 36.4672 132.588 36.9424 132.588H46.3609C47.6132 132.588 48.6297 133.604 48.6297 134.857V140.866L57.816 133.129C58.2394 132.774 58.7557 132.598 59.2702 132.593ZM89.4676 137.125H60.0813L47.9795 147.319C47.5686 147.739 46.9951 148 46.3609 148C45.1085 148 44.092 146.983 44.092 145.731V137.125H36.9424C35.2309 137.125 33.6713 136.425 32.5386 135.296C31.3953 134.151 30.6932 132.59 30.6932 130.876V99.4337C30.6932 97.7133 31.3953 96.1483 32.5261 95.0174C33.657 93.8866 35.222 93.1845 36.9424 93.1845H72.9549V74.8155H50.6485L34.9844 88.0107C34.5735 88.4305 34 88.6914 33.3658 88.6914C32.1134 88.6914 31.0969 87.6749 31.0969 86.4225V74.8155H21.3479C19.3238 74.8155 17.4837 73.9902 16.1545 72.661C14.8254 71.3318 14 69.4917 14 67.4676V27.3479C14 25.3256 14.8289 23.4837 16.1563 22.1563C17.4837 20.8289 19.3256 20 21.3479 20H88.3689C90.3912 20 92.2331 20.8289 93.5605 22.1563C94.8879 23.4837 95.7168 25.3256 95.7168 27.3479V56.5931H147.324C149.346 56.5931 151.186 57.4185 152.515 58.7477C153.845 60.0768 154.67 61.9169 154.67 63.9393V104.061C154.67 106.085 153.845 107.923 152.515 109.252C151.186 110.582 149.348 111.407 147.324 111.407H137.575V123.014C137.575 124.266 136.558 125.283 135.306 125.283C134.672 125.283 134.098 125.022 133.687 124.602L118.023 111.407H95.7168V130.876C95.7168 132.518 95.0719 134.021 94.025 135.139L93.8839 135.293C92.753 136.423 91.188 137.125 89.4676 137.125ZM77.4926 93.1845H89.4676C91.1094 93.1845 92.6101 93.8294 93.7284 94.8763L93.8839 95.0174C95.0147 96.1483 95.7168 97.7133 95.7168 99.4337V106.869H118.834C119.349 106.88 119.865 107.055 120.289 107.41L133.037 118.149V109.138C133.037 107.886 134.054 106.869 135.306 106.869H147.324C148.096 106.869 148.799 106.551 149.307 106.044C149.814 105.536 150.132 104.833 150.132 104.061V63.9393C150.132 63.1693 149.814 62.4636 149.307 61.9562C148.799 61.4489 148.094 61.1309 147.324 61.1309H80.3028C79.531 61.1309 78.8272 61.4489 78.3198 61.9562C77.8053 62.46 77.4926 63.1639 77.4926 63.9393V93.1845Z" fill="white"/>
</svg>
