<svg width="36" height="36" viewBox="0 0 36 36" fill="none" xmlns="http://www.w3.org/2000/svg">
<path d="M32.6954 32.6955C32.599 32.7921 32.4845 32.8686 32.3584 32.9209C32.2323 32.9731 32.0972 33 31.9608 33C31.8243 33 31.6892 32.9731 31.5631 32.9209C31.437 32.8686 31.3225 32.7921 31.2261 32.6955L24.7281 26.1981C22.4684 28.0775 19.5709 29.0137 16.6383 28.8119C13.7057 28.6101 10.9639 27.2859 8.98304 25.1146C7.0022 22.9434 5.93488 20.0924 6.00308 17.1545C6.07128 14.2166 7.26975 11.4181 9.34921 9.34111C11.4287 7.26409 14.229 6.06843 17.1678 6.00285C20.1066 5.93726 22.9575 7.0068 25.1276 8.98899C27.2977 10.9712 28.6199 13.7134 28.8192 16.6453C29.0184 19.5772 28.0794 22.473 26.1975 24.7305L32.6954 31.2266C32.792 31.323 32.8686 31.4375 32.9208 31.5635C32.9731 31.6895 33 31.8246 33 31.9611C33 32.0975 32.9731 32.2326 32.9208 32.3586C32.8686 32.4846 32.792 32.5991 32.6954 32.6955ZM17.4228 26.7704C19.2712 26.7704 21.0781 26.2224 22.615 25.1958C24.152 24.1692 25.3498 22.7099 26.0572 21.0027C26.7646 19.2955 26.9496 17.4169 26.589 15.6045C26.2284 13.7921 25.3383 12.1273 24.0313 10.8206C22.7242 9.51394 21.059 8.62409 19.246 8.26358C17.4331 7.90307 15.554 8.0881 13.8463 8.79526C12.1385 9.50243 10.6789 10.7 9.65196 12.2364C8.62502 13.7729 8.0769 15.5793 8.0769 17.4272C8.07965 19.9043 9.06518 22.2792 10.8173 24.0308C12.5694 25.7824 14.9449 26.7677 17.4228 26.7704Z" fill="white"/>
</svg>
