<svg width="34" height="33" viewBox="0 0 34 33" fill="none" xmlns="http://www.w3.org/2000/svg">
<path d="M33.1327 15.0416L26.2954 21.0087L28.3436 29.8926C28.452 30.357 28.421 30.8431 28.2547 31.29C28.0883 31.737 27.7939 32.125 27.4082 32.4055C27.0225 32.686 26.5627 32.8466 26.0863 32.8672C25.6098 32.8878 25.1378 32.7675 24.7294 32.5214L16.981 27.8217L9.24928 32.5214C8.84082 32.7675 8.36886 32.8878 7.8924 32.8672C7.41595 32.8466 6.95614 32.686 6.57046 32.4055C6.18479 32.125 5.89036 31.737 5.724 31.29C5.55763 30.8431 5.5267 30.357 5.63509 29.8926L7.6802 21.0178L0.841426 15.0416C0.479716 14.7297 0.218162 14.3179 0.0895638 13.8579C-0.0390347 13.3978 -0.0289531 12.9101 0.118544 12.4558C0.266041 12.0015 0.544388 11.6008 0.91868 11.3041C1.29297 11.0073 1.74654 10.8277 2.22252 10.7877L11.2368 10.0069L14.7555 1.61423C14.9392 1.17385 15.2492 0.797686 15.6463 0.533095C16.0434 0.268504 16.5099 0.127319 16.9871 0.127319C17.4642 0.127319 17.9307 0.268504 18.3279 0.533095C18.725 0.797686 19.0349 1.17385 19.2186 1.61423L22.7479 10.0069L31.7592 10.7877C32.2351 10.8277 32.6887 11.0073 33.063 11.3041C33.4373 11.6008 33.7157 12.0015 33.8632 12.4558C34.0106 12.9101 34.0207 13.3978 33.8921 13.8579C33.7635 14.3179 33.502 14.7297 33.1403 15.0416H33.1327Z" fill="white"/>
</svg>
