<svg width="33" height="32" viewBox="0 0 33 32" fill="none" xmlns="http://www.w3.org/2000/svg">
<path fill-rule="evenodd" clip-rule="evenodd" d="M16.5 32C7.663 32 0.5 24.837 0.5 16C0.5 7.163 7.663 0 16.5 0C25.337 0 32.5 7.163 32.5 16C32.5 24.837 25.337 32 16.5 32ZM23 19.154C23 16.631 21.424 15.206 17.737 14.318V9.878C18.877 10.112 19.968 10.603 21.035 11.374L22.394 9.178C21.0554 8.19754 19.4831 7.58518 17.834 7.402V6H15.724V7.355C12.692 7.589 10.631 9.318 10.631 11.841C10.631 14.481 12.28 15.766 15.821 16.654V21.234C14.244 21 12.935 20.299 11.552 19.224L10 21.35C11.6613 22.6289 13.6407 23.4291 15.724 23.664V26H17.834V23.687C20.914 23.43 23 21.724 23 19.154ZM15.82 13.827C13.953 13.29 13.493 12.659 13.493 11.677C13.493 10.65 14.293 9.832 15.821 9.715L15.82 13.827ZM20.138 19.317C20.138 20.439 19.265 21.21 17.737 21.327V17.098C19.629 17.636 20.138 18.266 20.138 19.318V19.317Z" fill="#F4FF73"/>
</svg>
