<svg width="25" height="24" viewBox="0 0 25 24" fill="none" xmlns="http://www.w3.org/2000/svg">
<path d="M17.3667 10.8537L12.8216 15.8534C12.7794 15.8999 12.7292 15.9367 12.6741 15.9619C12.6189 15.9871 12.5597 16 12.5 16C12.4403 16 12.3811 15.9871 12.3259 15.9619C12.2708 15.9367 12.2206 15.8999 12.1784 15.8534L7.6333 10.8537C7.56967 10.7838 7.52632 10.6947 7.50875 10.5976C7.49119 10.5006 7.50019 10.4 7.53462 10.3086C7.56905 10.2172 7.62736 10.1391 7.70217 10.0841C7.77698 10.0292 7.86492 9.99992 7.95487 10H17.0451C17.1351 9.99992 17.223 10.0292 17.2978 10.0841C17.3726 10.1391 17.431 10.2172 17.4654 10.3086C17.4998 10.4 17.5088 10.5006 17.4912 10.5976C17.4737 10.6947 17.4303 10.7838 17.3667 10.8537Z" fill="white"/>
</svg>
