<svg width="24" height="24" viewBox="0 0 24 24" fill="none" xmlns="http://www.w3.org/2000/svg">
<path d="M19.7765 4.63872C19.688 4.56227 19.5803 4.51142 19.465 4.49166C19.3497 4.4719 19.2312 4.48397 19.1222 4.52658L4.64662 10.1915C4.44147 10.2713 4.26778 10.4156 4.15171 10.6026C4.03564 10.7896 3.98347 11.0093 4.00305 11.2285C4.02263 11.4478 4.1129 11.6547 4.26028 11.8182C4.40765 11.9817 4.60415 12.0929 4.82019 12.1351L8.57088 12.8715V17.0536C8.57014 17.2814 8.63784 17.5042 8.76519 17.6931C8.89255 17.8819 9.0737 18.0282 9.28516 18.1129C9.4963 18.1991 9.72849 18.2198 9.95154 18.1723C10.1746 18.1248 10.3782 18.0113 10.5359 17.8465L12.3444 15.9708L15.2137 18.4822C15.4207 18.6658 15.6877 18.7674 15.9644 18.7679C16.0857 18.7678 16.2062 18.7488 16.3215 18.7115C16.5101 18.6516 16.6796 18.5435 16.8134 18.3977C16.9471 18.252 17.0403 18.0737 17.0837 17.8808L19.9829 5.268C20.0089 5.15425 20.0034 5.03559 19.967 4.92473C19.9306 4.81387 19.8648 4.715 19.7765 4.63872ZM15.9658 17.625L10.0602 12.4465L18.5601 6.35442L15.9658 17.625Z" fill="#FF5C01"/>
</svg>
