<svg width="52" height="52" viewBox="0 0 52 52" fill="none" xmlns="http://www.w3.org/2000/svg">
<g clip-path="url(#clip0_433_2778)">
<path d="M19.8104 35.5334C26.7238 29.782 34.7409 22.462 34.7409 22.462L43.5713 49.9991L46.7085 45.9324L44.8494 27.5743L47.1151 25.3086C47.5218 24.902 47.5218 24.321 47.1151 23.9143L46.1856 22.9848C45.779 22.5782 45.198 22.5782 44.7913 22.9848L44.5009 23.2753L44.3266 21.5905L46.8828 19.0344C47.2894 18.6277 47.2894 18.0467 46.8828 17.6401L45.9532 16.7106C45.5466 16.3039 44.9656 16.3039 44.559 16.7106L43.9199 17.3496L43.4552 12.702L47.1732 8.40295C50.5428 4.10391 49.9618 0.0372557 49.9618 0.0372557C49.9618 0.0372557 45.8951 -0.543697 41.5961 2.94201L37.2971 6.6601L32.6495 6.19534L33.2885 5.55629C33.6952 5.14963 33.6952 4.56868 33.2885 4.16201L32.359 3.23249C31.9523 2.82582 31.3714 2.82582 30.9647 3.23249L28.4085 5.78867L26.7238 5.61439L27.0142 5.32391C27.4209 4.91725 27.4209 4.33629 27.0142 3.92963L26.0847 3.00011C25.678 2.59344 25.0971 2.59344 24.6904 3.00011L22.4247 5.26582L4.06666 3.29058L0 6.42772L27.5371 15.2582C27.5371 15.2582 20.2171 23.2753 14.4657 30.1886L4.18285 27.5743L0.813333 29.8981L10.7476 35.1848L8.77236 39.7162L5.51903 43.6667L6.27427 44.4219L10.2247 41.1686L14.7562 39.1934L20.0428 49.1276L22.3666 45.7581L19.8104 35.5334Z" fill="#FF5C01"/>
<path d="M21.8104 37.5334C28.7238 31.782 36.7409 24.462 36.7409 24.462L45.5713 51.9991L48.7085 47.9324L46.8494 29.5743L49.1151 27.3086C49.5218 26.902 49.5218 26.321 49.1151 25.9143L48.1856 24.9848C47.779 24.5782 47.198 24.5782 46.7913 24.9848L46.5009 25.2753L46.3266 23.5905L48.8828 21.0344C49.2894 20.6277 49.2894 20.0467 48.8828 19.6401L47.9532 18.7106C47.5466 18.3039 46.9656 18.3039 46.559 18.7106L45.9199 19.3496L45.4552 14.702L49.1732 10.403C52.5428 6.10391 51.9618 2.03726 51.9618 2.03726C51.9618 2.03726 47.8951 1.4563 43.5961 4.94201L39.2971 8.6601L34.6495 8.19534L35.2885 7.55629C35.6952 7.14963 35.6952 6.56868 35.2885 6.16201L34.359 5.23249C33.9523 4.82582 33.3714 4.82582 32.9647 5.23249L30.4085 7.78867L28.7238 7.61439L29.0142 7.32391C29.4209 6.91725 29.4209 6.33629 29.0142 5.92963L28.0847 5.00011C27.678 4.59344 27.0971 4.59344 26.6904 5.00011L24.4247 7.26582L6.06666 5.29058L2 8.42772L29.5371 17.2582C29.5371 17.2582 22.2171 25.2753 16.4657 32.1886L6.18285 29.5743L2.81333 31.8981L12.7476 37.1848L10.7724 41.7162L7.51903 45.6667L8.27427 46.4219L12.2247 43.1686L16.7562 41.1934L22.0428 51.1276L24.3666 47.7581L21.8104 37.5334Z" fill="white"/>
</g>
<defs>
<clipPath id="clip0_433_2778">
<rect width="52" height="51.9981" fill="white" transform="translate(0 0.000946045)"/>
</clipPath>
</defs>
</svg>
