<svg width="623" height="624" viewBox="0 0 623 624" fill="none" xmlns="http://www.w3.org/2000/svg">
<path d="M397.805 162.177L421.677 128.959L435.675 139.019C439.219 141.566 441.835 144.501 443.523 147.826C445.244 151.173 445.949 154.63 445.64 158.198C445.362 161.788 444.041 165.229 441.677 168.519C439.313 171.809 436.473 174.158 433.159 175.566C429.876 176.997 426.374 177.43 422.653 176.867C418.963 176.327 415.347 174.783 411.804 172.237L397.805 162.177ZM405.517 161.459L414.486 167.904C417.238 169.882 419.986 171.065 422.729 171.453C425.504 171.864 428.116 171.534 430.565 170.464C433.036 169.361 435.158 167.576 436.932 165.109C438.728 162.609 439.743 160.029 439.977 157.366C440.211 154.704 439.691 152.124 438.416 149.625C437.174 147.148 435.176 144.921 432.424 142.943L423.455 136.498L405.517 161.459Z" fill="black"/>
<path d="M440.079 198.269C438.007 195.941 436.376 193.403 435.184 190.657C434.022 187.885 433.464 185.383 433.512 183.15L438.354 181.736C438.371 183.807 438.848 186.042 439.784 188.442C440.72 190.843 442.055 193.018 443.79 194.968C445.37 196.743 446.855 198.003 448.246 198.746C449.638 199.49 450.916 199.813 452.081 199.716C453.274 199.592 454.322 199.129 455.225 198.326C456.273 197.394 456.806 196.294 456.825 195.026C456.87 193.787 456.589 192.446 455.984 191.003C455.433 189.564 454.721 188.06 453.847 186.491C452.973 184.922 452.129 183.3 451.316 181.624C450.559 179.952 449.993 178.291 449.621 176.641C449.274 175.02 449.312 173.422 449.735 171.846C450.188 170.245 451.229 168.719 452.859 167.269C454.431 165.871 456.234 164.996 458.269 164.646C460.359 164.299 462.56 164.635 464.874 165.653C467.242 166.674 469.618 168.524 472 171.202C473.58 172.977 474.913 174.946 476.001 177.106C477.089 179.267 477.766 181.376 478.032 183.434L473.258 185.1C472.966 183.013 472.361 181.074 471.445 179.282C470.558 177.464 469.506 175.871 468.289 174.503C466.761 172.786 465.287 171.569 463.866 170.851C462.446 170.133 461.139 169.836 459.945 169.959C458.777 170.112 457.742 170.59 456.84 171.392C455.763 172.35 455.202 173.449 455.157 174.688C455.138 175.956 455.419 177.297 455.998 178.711C456.604 180.153 457.329 181.672 458.174 183.267C459.048 184.835 459.879 186.443 460.666 188.089C461.478 189.765 462.058 191.413 462.405 193.034C462.778 194.684 462.752 196.296 462.329 197.872C461.906 199.448 460.894 200.948 459.293 202.372C457.75 203.744 455.934 204.604 453.844 204.951C451.784 205.272 449.556 204.907 447.161 203.857C444.822 202.81 442.461 200.947 440.079 198.269Z" fill="black"/>
<path d="M467.554 239.92C466.445 237.6 465.956 235.222 466.087 232.784C466.27 230.366 467.139 228.072 468.693 225.905C470.265 223.772 472.633 221.95 475.796 220.438C478.96 218.927 481.856 218.212 484.486 218.294C487.133 218.411 489.437 219.167 491.398 220.561C493.376 221.99 494.937 223.9 496.079 226.29C497.389 229.032 497.95 231.743 497.763 234.423C497.575 237.103 496.703 239.571 495.147 241.826C493.626 244.064 491.442 245.863 488.594 247.223C485.747 248.584 482.958 249.161 480.225 248.955C477.493 248.75 475.026 247.878 472.823 246.34C470.62 244.802 468.864 242.662 467.554 239.92ZM450.562 229.84L488.736 211.6L491.053 216.451L483.514 220.054L476.877 222.836L470.644 226.462L452.98 234.902L450.562 229.84ZM471.781 237.382C472.638 239.175 473.806 240.581 475.286 241.601C476.784 242.656 478.463 243.235 480.326 243.338C482.241 243.459 484.182 243.05 486.151 242.109C488.154 241.152 489.675 239.907 490.713 238.375C491.803 236.861 492.408 235.19 492.528 233.362C492.665 231.57 492.305 229.778 491.448 227.985C490.608 226.227 489.44 224.821 487.943 223.766C486.463 222.747 484.783 222.168 482.903 222.029C481.076 221.909 479.16 222.328 477.157 223.286C475.188 224.226 473.641 225.462 472.516 226.992C471.443 228.542 470.838 230.212 470.701 232.005C470.581 233.832 470.941 235.625 471.781 237.382Z" fill="black"/>
<path d="M480.518 277.351L486.861 275.736L487.978 275.15L498.795 272.397C501.098 271.811 502.699 270.68 503.599 269.003C504.546 267.355 504.679 265.191 503.996 262.51C503.545 260.736 502.801 259.076 501.764 257.531C500.765 255.976 499.626 254.739 498.347 253.818L501.848 250.515C503.487 251.746 504.902 253.355 506.092 255.344C507.329 257.361 508.25 259.558 508.855 261.937C509.903 266.052 509.709 269.478 508.276 272.215C506.842 274.952 504.067 276.844 499.952 277.891L481.83 282.504L480.518 277.351ZM477.67 267.583C477.103 265.356 476.981 263.297 477.304 261.405C477.636 259.552 478.348 258.004 479.438 256.762C480.567 255.51 481.981 254.667 483.679 254.235C485.303 253.822 486.871 253.825 488.385 254.243C489.908 254.7 491.287 255.695 492.522 257.23C493.767 258.803 494.768 261.08 495.528 264.063L497.949 273.577L494.042 274.572L491.678 265.284C490.986 262.566 490.067 260.85 488.92 260.137C487.774 259.424 486.559 259.231 485.275 259.557C483.803 259.932 482.763 260.82 482.155 262.221C481.584 263.612 481.563 265.346 482.092 267.423C482.611 269.461 483.515 271.12 484.806 272.4C486.106 273.717 487.711 274.495 489.62 274.732L486.157 276.76C484.2 276.494 482.462 275.589 480.944 274.046C479.463 272.494 478.372 270.339 477.67 267.583Z" fill="black"/>
<path d="M482.673 289.812L513.511 286.951L514.008 292.304L505.629 293.082L507.675 292.364C509.888 293.019 511.65 294.303 512.962 296.216C514.274 298.129 515.067 300.559 515.341 303.507L509.929 304.009C509.947 303.773 509.944 303.538 509.923 303.306C509.905 303.112 509.887 302.918 509.869 302.724C509.592 299.737 508.48 297.453 506.534 295.873C504.587 294.293 501.927 293.66 498.552 293.973L483.191 295.398L482.673 289.812Z" fill="black"/>
<path d="M483.465 323.343C483.579 320.228 484.504 317.845 486.24 316.193C487.976 314.541 490.402 313.772 493.516 313.885L521.898 314.919L521.693 320.525L493.546 319.5C491.872 319.439 490.572 319.801 489.647 320.586C488.72 321.41 488.229 322.6 488.172 324.157C488.108 325.909 488.542 327.387 489.472 328.59L485.379 330.195C484.671 329.312 484.163 328.261 483.857 327.041C483.549 325.86 483.418 324.627 483.465 323.343ZM510.702 309.248L515.315 309.416L514.596 329.155L509.983 328.987L510.702 309.248Z" fill="black"/>
<path d="M510.575 356.889C510.051 359.367 509.114 361.438 507.766 363.104C506.41 364.808 504.647 365.988 502.477 366.643C500.307 367.299 497.736 367.312 494.763 366.682L477.327 362.99L478.489 357.502L495.297 361.061C498.231 361.682 500.595 361.426 502.388 360.293C504.173 359.197 505.34 357.354 505.889 354.762C506.3 352.818 506.278 351.042 505.823 349.432C505.367 347.822 504.481 346.46 503.164 345.345C501.839 344.268 500.071 343.495 497.861 343.027L482.254 339.723L483.416 334.234L513.715 340.65L512.602 345.91L504.426 344.179L506.78 343.781C508.552 345.192 509.773 347.043 510.443 349.335C511.112 351.627 511.156 354.145 510.575 356.889Z" fill="black"/>
<path d="M469.052 382.465C470.376 379.429 472.168 377.024 474.43 375.247C476.676 373.507 479.169 372.468 481.908 372.132C484.631 371.832 487.403 372.297 490.224 373.527C493.046 374.757 495.281 376.454 496.93 378.618C498.563 380.817 499.52 383.253 499.8 385.925C500.1 388.648 499.659 391.367 498.476 394.081C497.277 396.831 495.611 398.995 493.478 400.572C491.346 402.15 488.915 403.045 486.188 403.259C483.48 403.523 480.662 403.017 477.733 401.74C477.519 401.647 477.277 401.52 477.007 401.36C476.721 401.235 476.461 401.101 476.227 400.956L486.759 376.797L490.455 378.409L481.09 399.889L480.716 397.239C482.521 398.069 484.31 398.402 486.081 398.24C487.852 398.077 489.433 397.47 490.826 396.42C492.239 395.421 493.343 394.011 494.137 392.19C494.915 390.404 495.197 388.636 494.983 386.885C494.805 385.15 494.155 383.57 493.033 382.146C491.947 380.738 490.476 379.629 488.619 378.819L487.761 378.446C485.869 377.62 483.986 377.309 482.112 377.513C480.259 377.767 478.579 378.501 477.072 379.714C475.566 380.927 474.369 382.552 473.482 384.587C472.75 386.266 472.374 387.908 472.354 389.514C472.318 391.156 472.646 392.744 473.337 394.278L468.778 395.669C467.839 393.729 467.397 391.624 467.452 389.353C467.491 387.118 468.025 384.822 469.052 382.465Z" fill="black"/>
<path d="M460.088 400.886L486.11 417.68L483.195 422.197L476.125 417.634L478.178 418.333C479.513 420.215 480.106 422.313 479.957 424.628C479.808 426.943 478.931 429.344 477.325 431.832L472.759 428.885C472.918 428.71 473.061 428.524 473.188 428.327C473.294 428.164 473.399 428 473.505 427.836C475.132 425.316 475.667 422.833 475.112 420.389C474.557 417.944 472.856 415.803 470.008 413.965L457.046 405.6L460.088 400.886Z" fill="black"/>
<path d="M441.367 426.114C443.061 424.179 444.941 422.563 447.008 421.266C449.049 419.998 450.887 419.199 452.521 418.869L454.324 423.552C452.778 423.959 451.129 424.69 449.377 425.746C447.625 426.801 446.082 428.091 444.748 429.616C443.03 431.58 442.077 433.231 441.89 434.569C441.677 435.936 442.069 437.056 443.066 437.928C443.799 438.569 444.602 438.805 445.474 438.637C446.346 438.468 447.27 438.034 448.245 437.334C449.194 436.663 450.203 435.864 451.274 434.937C452.373 434.036 453.502 433.16 454.66 432.309C455.847 431.485 457.046 430.825 458.255 430.33C459.494 429.861 460.74 429.709 461.993 429.874C463.276 430.065 464.591 430.75 465.94 431.93C467.347 433.161 468.232 434.635 468.595 436.35C468.958 438.065 468.79 439.885 468.09 441.809C467.393 443.788 466.173 445.774 464.428 447.768C463.094 449.292 461.557 450.665 459.816 451.885C458.079 453.16 456.437 454.001 454.891 454.408L453.126 449.681C454.753 449.241 456.199 448.565 457.463 447.652C458.728 446.74 459.86 445.712 460.861 444.568C462.477 442.721 463.375 441.074 463.554 439.626C463.763 438.204 463.399 437.083 462.46 436.262C461.669 435.569 460.822 435.294 459.921 435.437C459.023 435.635 458.085 436.057 457.106 436.702C456.102 437.376 455.05 438.164 453.951 439.066C452.881 439.993 451.752 440.869 450.564 441.693C449.406 442.544 448.235 443.201 447.052 443.667C445.842 444.162 444.611 444.326 443.358 444.162C442.079 444.026 440.779 443.381 439.46 442.227C438.053 440.995 437.195 439.52 436.887 437.801C436.579 436.083 436.787 434.219 437.508 432.211C438.26 430.228 439.546 428.196 441.367 426.114Z" fill="black"/>
<path d="M395.26 464.948L411.263 502.593L395.399 509.337C391.383 511.044 387.516 511.757 383.798 511.475C380.044 511.208 376.723 510.017 373.834 507.901C370.909 505.8 368.654 502.885 367.069 499.156C365.484 495.428 364.95 491.781 365.466 488.218C365.947 484.669 367.394 481.45 369.807 478.562C372.184 475.689 375.38 473.399 379.395 471.692L395.26 464.948ZM391.871 471.913L381.707 476.234C378.588 477.56 376.15 479.294 374.395 481.438C372.603 483.596 371.529 486 371.174 488.649C370.834 491.333 371.258 494.074 372.447 496.87C373.651 499.703 375.33 501.91 377.484 503.492C379.638 505.073 382.114 505.968 384.911 506.176C387.673 506.399 390.613 505.847 393.732 504.521L403.896 500.2L391.871 471.913Z" fill="black"/>
<path d="M342.397 482.408C345.461 481.838 348.476 481.753 351.443 482.153C354.417 482.591 356.847 483.407 358.733 484.602L357.441 489.478C355.659 488.422 353.5 487.675 350.961 487.235C348.423 486.795 345.87 486.814 343.304 487.291C340.968 487.725 339.122 488.346 337.766 489.153C336.41 489.959 335.473 490.887 334.954 491.934C334.443 493.02 334.298 494.156 334.518 495.343C334.775 496.722 335.441 497.748 336.517 498.419C337.554 499.098 338.847 499.551 340.395 499.779C341.912 500.052 343.567 500.219 345.362 500.282C347.157 500.345 348.982 500.461 350.836 500.632C352.659 500.847 354.373 501.222 355.978 501.756C357.545 502.297 358.893 503.156 360.023 504.333C361.161 505.548 361.929 507.228 362.327 509.373C362.712 511.441 362.528 513.437 361.776 515.359C360.993 517.328 359.567 519.039 357.5 520.493C355.401 521.993 352.59 523.07 349.066 523.725C346.729 524.159 344.355 524.284 341.943 524.098C339.531 523.912 337.376 523.402 335.477 522.566L336.519 517.617C338.456 518.446 340.428 518.931 342.436 519.073C344.451 519.253 346.358 519.176 348.158 518.842C350.418 518.422 352.222 517.789 353.571 516.944C354.92 516.099 355.85 515.134 356.361 514.048C356.834 512.969 356.96 511.836 356.74 510.649C356.476 509.232 355.826 508.184 354.788 507.505C353.712 506.833 352.42 506.38 350.91 506.146C349.362 505.918 347.687 505.754 345.885 505.653C344.09 505.59 342.285 505.47 340.469 505.293C338.614 505.122 336.904 504.767 335.337 504.226C333.732 503.692 332.365 502.837 331.235 501.66C330.104 500.483 329.344 498.841 328.952 496.735C328.575 494.705 328.778 492.706 329.561 490.737C330.351 488.807 331.815 487.089 333.952 485.582C336.058 484.121 338.873 483.063 342.397 482.408Z" fill="black"/>
<path d="M292.515 484.4C295.074 484.656 297.361 485.472 299.376 486.848C301.35 488.259 302.859 490.191 303.906 492.645C304.914 495.095 305.243 498.064 304.895 501.553C304.546 505.042 303.654 507.889 302.22 510.095C300.747 512.297 298.905 513.874 296.696 514.828C294.448 515.778 292.005 516.121 289.37 515.857C286.346 515.555 283.737 514.628 281.543 513.078C279.349 511.527 277.692 509.502 276.572 507.001C275.447 504.54 275.042 501.739 275.356 498.599C275.67 495.459 276.624 492.775 278.217 490.546C279.81 488.317 281.836 486.66 284.293 485.575C286.751 484.489 289.492 484.098 292.515 484.4ZM309.947 475.102L305.738 517.2L300.388 516.665L301.22 508.35L302.284 501.233L302.418 494.023L304.365 474.544L309.947 475.102ZM292.492 489.331C290.515 489.133 288.707 489.403 287.067 490.139C285.388 490.872 284.022 492.008 282.968 493.546C281.871 495.12 281.214 496.993 280.996 499.163C280.776 501.373 281.051 503.319 281.822 505.001C282.551 506.718 283.665 508.102 285.166 509.153C286.627 510.2 288.346 510.822 290.323 511.019C292.261 511.213 294.07 510.944 295.748 510.211C297.388 509.475 298.754 508.339 299.847 506.804C300.898 505.304 301.534 503.449 301.755 501.239C301.972 499.068 301.718 497.105 300.993 495.349C300.225 493.628 299.111 492.244 297.65 491.197C296.149 490.147 294.43 489.525 292.492 489.331Z" fill="black"/>
<path d="M254.12 476.204L252.21 482.464L252.132 483.723L248.875 494.399C248.182 496.672 248.319 498.628 249.285 500.267C250.203 501.931 251.984 503.167 254.63 503.974C256.381 504.509 258.186 504.733 260.045 504.649C261.892 504.601 263.541 504.269 264.992 503.653L266 508.359C264.097 509.123 261.987 509.497 259.67 509.483C257.304 509.494 254.948 509.142 252.6 508.426C248.539 507.187 245.71 505.245 244.114 502.599C242.518 499.954 242.339 496.6 243.578 492.539L249.034 474.653L254.12 476.204ZM263.948 478.835C266.146 479.506 267.97 480.47 269.42 481.726C270.832 482.972 271.786 484.383 272.283 485.96C272.768 487.574 272.755 489.22 272.243 490.896C271.755 492.499 270.939 493.838 269.796 494.915C268.615 495.981 267.049 496.643 265.096 496.903C263.106 497.151 260.639 496.826 257.695 495.928L248.305 493.064L249.482 489.207L258.648 492.004C261.331 492.822 263.275 492.926 264.479 492.316C265.683 491.706 266.479 490.767 266.865 489.5C267.308 488.047 267.089 486.697 266.207 485.45C265.313 484.241 263.841 483.324 261.792 482.699C259.78 482.085 257.892 481.998 256.129 482.437C254.328 482.866 252.831 483.835 251.637 485.344L251.701 481.331C252.943 479.796 254.617 478.779 256.724 478.281C258.82 477.821 261.228 478.006 263.948 478.835Z" fill="black"/>
<path d="M242.734 471.776L229.273 499.668L224.431 497.332L228.088 489.753L227.648 491.876C225.944 493.434 223.935 494.281 221.62 494.418C219.304 494.555 216.813 493.98 214.147 492.693L216.509 487.798C216.702 487.935 216.904 488.054 217.115 488.156C217.29 488.24 217.466 488.325 217.641 488.41C220.343 489.714 222.872 489.94 225.23 489.088C227.588 488.236 229.503 486.283 230.976 483.231L237.682 469.337L242.734 471.776Z" fill="black"/>
<path d="M212.68 454.561C215.279 456.281 216.831 458.312 217.336 460.655C217.841 462.998 217.233 465.469 215.513 468.068L199.839 491.751L195.161 488.655L210.706 465.167C211.631 463.77 211.999 462.472 211.811 461.273C211.591 460.053 210.831 459.013 209.532 458.153C208.07 457.185 206.583 456.785 205.071 456.952L205.834 452.622C206.958 452.478 208.12 452.593 209.32 452.967C210.488 453.32 211.608 453.851 212.68 454.561ZM210.513 485.151L207.966 489.001L191.495 478.1L194.043 474.25L210.513 485.151Z" fill="black"/>
<path d="M169.784 460.152C167.943 458.413 166.663 456.534 165.944 454.516C165.196 452.47 165.108 450.351 165.68 448.157C166.251 445.964 167.58 443.763 169.666 441.553L181.904 428.596L185.983 432.448L174.186 444.938C172.126 447.119 171.113 449.27 171.146 451.391C171.15 453.485 172.116 455.442 174.042 457.261C175.486 458.625 177.014 459.532 178.625 459.982C180.236 460.432 181.861 460.386 183.499 459.843C185.109 459.274 186.689 458.168 188.241 456.525L199.195 444.927L203.273 448.779L182.007 471.295L178.098 467.603L183.836 461.528L182.949 463.745C180.821 464.522 178.605 464.599 176.3 463.976C173.995 463.353 171.823 462.078 169.784 460.152Z" fill="black"/>
<path d="M170.07 412.185C171.981 414.89 173.11 417.67 173.457 420.525C173.782 423.348 173.378 426.018 172.246 428.534C171.092 431.019 169.258 433.149 166.744 434.925C164.231 436.7 161.621 437.733 158.916 438.022C156.188 438.28 153.609 437.836 151.179 436.691C148.694 435.537 146.597 433.75 144.889 431.332C143.159 428.882 142.171 426.336 141.927 423.694C141.682 421.053 142.176 418.51 143.407 416.067C144.584 413.614 146.477 411.466 149.086 409.623C149.277 409.488 149.511 409.346 149.788 409.198C150.042 409.019 150.292 408.866 150.537 408.74L165.743 430.266L162.45 432.593L148.93 413.453L151.39 414.505C149.745 415.62 148.533 416.977 147.755 418.576C146.977 420.175 146.676 421.842 146.852 423.578C146.975 425.304 147.609 426.978 148.755 428.601C149.879 430.192 151.245 431.349 152.854 432.073C154.43 432.82 156.118 433.082 157.917 432.861C159.685 432.662 161.396 431.978 163.05 430.809L163.814 430.27C165.5 429.078 166.742 427.629 167.539 425.921C168.282 424.204 168.524 422.387 168.267 420.47C168.01 418.553 167.241 416.688 165.96 414.874C164.903 413.379 163.694 412.206 162.33 411.356C160.945 410.475 159.417 409.933 157.747 409.729L158.919 405.109C161.065 405.311 163.094 406.023 165.008 407.247C166.899 408.439 168.587 410.085 170.07 412.185Z" fill="black"/>
<path d="M159.105 395.491L131.258 409.048L128.905 404.214L136.471 400.531L134.809 401.925C132.508 402.092 130.406 401.512 128.503 400.185C126.601 398.858 125.001 396.864 123.705 394.202L128.592 391.823C128.659 392.05 128.744 392.269 128.846 392.479C128.931 392.654 129.017 392.829 129.102 393.004C130.415 395.701 132.261 397.446 134.639 398.238C137.018 399.03 139.731 398.684 142.778 397.2L156.649 390.447L159.105 395.491Z" fill="black"/>
<path d="M147.129 366.263C147.907 368.714 148.316 371.159 148.354 373.6C148.382 376.002 148.113 377.988 147.548 379.557L142.608 378.673C143.061 377.14 143.29 375.35 143.295 373.305C143.3 371.26 142.996 369.272 142.383 367.341C141.593 364.853 140.674 363.183 139.627 362.33C138.568 361.44 137.407 361.195 136.145 361.596C135.216 361.891 134.598 362.455 134.291 363.288C133.983 364.122 133.876 365.137 133.97 366.333C134.052 367.492 134.212 368.77 134.451 370.166C134.652 371.573 134.817 372.992 134.944 374.423C135.034 375.866 134.977 377.233 134.774 378.524C134.534 379.826 134.018 380.971 133.228 381.957C132.4 382.956 131.132 383.726 129.424 384.268C127.642 384.834 125.923 384.828 124.268 384.25C122.613 383.671 121.144 382.585 119.861 380.989C118.529 379.368 117.463 377.295 116.661 374.77C116.048 372.84 115.671 370.814 115.529 368.692C115.338 366.546 115.469 364.706 115.922 363.172L120.88 364.112C120.413 365.732 120.243 367.319 120.368 368.873C120.494 370.427 120.786 371.928 121.246 373.376C121.989 375.716 122.932 377.337 124.078 378.241C125.186 379.156 126.334 379.425 127.522 379.048C128.524 378.73 129.198 378.148 129.543 377.303C129.839 376.432 129.964 375.411 129.92 374.24C129.863 373.032 129.734 371.724 129.532 370.317C129.294 368.921 129.129 367.502 129.039 366.059C128.912 364.628 128.956 363.286 129.171 362.032C129.374 360.741 129.871 359.603 130.662 358.616C131.44 357.592 132.665 356.815 134.336 356.285C136.118 355.719 137.824 355.75 139.454 356.377C141.083 357.004 142.57 358.146 143.914 359.804C145.221 361.474 146.292 363.627 147.129 366.263Z" fill="black"/>
<path d="M137.445 306.285L96.9448 300.543L99.3648 283.475C99.9774 279.155 101.365 275.476 103.527 272.438C105.694 269.361 108.43 267.133 111.734 265.752C115.044 264.332 118.704 263.907 122.716 264.476C126.727 265.045 130.125 266.471 132.91 268.754C135.7 270.999 137.709 273.9 138.935 277.458C140.168 280.978 140.478 284.897 139.865 289.217L137.445 306.285ZM133.232 299.786L134.782 288.851C135.258 285.495 135.032 282.512 134.104 279.901C133.181 277.252 131.677 275.091 129.593 273.419C127.47 271.741 124.904 270.688 121.896 270.262C118.848 269.83 116.091 270.127 113.624 271.155C111.157 272.182 109.112 273.84 107.489 276.128C105.872 278.377 104.825 281.18 104.349 284.536L102.799 295.471L133.232 299.786Z" fill="black"/>
<path d="M149.56 252.68C148.459 255.596 146.969 258.219 145.089 260.549C143.173 262.865 141.215 264.52 139.216 265.514L135.716 261.881C137.542 260.905 139.301 259.445 140.993 257.502C142.684 255.559 143.991 253.367 144.913 250.925C145.753 248.702 146.179 246.802 146.192 245.224C146.205 243.647 145.898 242.365 145.271 241.378C144.608 240.378 143.711 239.665 142.582 239.238C141.269 238.742 140.047 238.781 138.915 239.352C137.797 239.888 136.739 240.758 135.742 241.964C134.723 243.12 133.721 244.449 132.737 245.951C131.753 247.454 130.708 248.954 129.601 250.451C128.471 251.899 127.262 253.17 125.974 254.266C124.699 255.325 123.266 256.033 121.674 256.39C120.045 256.732 118.21 256.518 116.169 255.747C114.201 255.004 112.59 253.812 111.336 252.173C110.058 250.483 109.334 248.377 109.162 245.855C108.967 243.283 109.503 240.32 110.77 236.967C111.609 234.744 112.734 232.649 114.143 230.683C115.552 228.716 117.106 227.138 118.805 225.947L122.497 229.403C120.784 230.63 119.347 232.065 118.185 233.709C116.986 235.338 116.063 237.009 115.416 238.722C114.604 240.872 114.21 242.743 114.234 244.335C114.257 245.926 114.601 247.222 115.264 248.222C115.941 249.186 116.845 249.881 117.974 250.307C119.323 250.817 120.556 250.804 121.675 250.268C122.807 249.697 123.864 248.826 124.847 247.656C125.844 246.45 126.853 245.103 127.873 243.615C128.857 242.112 129.896 240.63 130.989 239.169C132.096 237.672 133.287 236.393 134.561 235.334C135.85 234.238 137.29 233.512 138.882 233.156C140.474 232.799 142.273 233 144.277 233.757C146.209 234.486 147.813 235.696 149.09 237.386C150.331 239.062 151.042 241.205 151.223 243.813C151.381 246.372 150.827 249.327 149.56 252.68Z" fill="black"/>
<path d="M174.347 207.722C172.799 209.775 170.914 211.305 168.69 212.312C166.459 213.264 164.024 213.55 161.383 213.169C158.767 212.756 156.058 211.495 153.259 209.384C150.46 207.272 148.491 205.031 147.352 202.659C146.236 200.257 145.845 197.864 146.179 195.48C146.536 193.066 147.512 190.801 149.107 188.686C150.937 186.26 153.084 184.513 155.549 183.444C158.014 182.375 160.605 182.012 163.324 182.354C166.011 182.673 168.614 183.783 171.134 185.683C173.653 187.583 175.451 189.793 176.527 192.312C177.604 194.832 177.967 197.423 177.617 200.087C177.267 202.751 176.177 205.296 174.347 207.722ZM173.231 227.447L139.453 201.972L142.69 197.68L149.362 202.712L154.889 207.319L160.98 211.181L176.609 222.968L173.231 227.447ZM170.147 205.139C171.343 203.553 172.053 201.868 172.276 200.084C172.522 198.27 172.262 196.512 171.495 194.811C170.721 193.056 169.462 191.522 167.721 190.208C165.948 188.871 164.142 188.095 162.304 187.88C160.458 187.61 158.697 187.843 157.019 188.579C155.366 189.283 153.941 190.429 152.744 192.015C151.572 193.57 150.862 195.255 150.616 197.07C150.393 198.854 150.653 200.611 151.396 202.343C152.132 204.02 153.386 205.527 155.159 206.864C156.901 208.178 158.71 208.981 160.587 209.275C162.457 209.513 164.218 209.28 165.872 208.576C167.549 207.84 168.974 206.695 170.147 205.139Z" fill="black"/>
<path d="M201.489 178.964L197.138 174.074L196.104 173.351L188.686 165.012C187.106 163.237 185.366 162.335 183.463 162.306C181.564 162.223 179.581 163.101 177.515 164.939C176.147 166.156 175.015 167.58 174.119 169.211C173.198 170.813 172.623 172.393 172.394 173.953L167.851 172.363C168.19 170.341 168.969 168.344 170.187 166.374C171.41 164.348 172.937 162.519 174.771 160.888C177.944 158.066 181.075 156.662 184.165 156.677C187.254 156.692 190.21 158.286 193.033 161.458L205.462 175.43L201.489 178.964ZM194.125 185.984C192.407 187.512 190.635 188.567 188.807 189.15C187.009 189.708 185.307 189.787 183.702 189.39C182.071 188.964 180.673 188.096 179.508 186.786C178.395 185.534 177.676 184.14 177.352 182.604C177.057 181.041 177.307 179.359 178.102 177.556C178.926 175.728 180.488 173.791 182.788 171.745L190.123 165.22L192.803 168.233L185.642 174.603C183.547 176.467 182.446 178.072 182.339 179.418C182.233 180.764 182.62 181.932 183.501 182.921C184.51 184.057 185.777 184.572 187.301 184.468C188.799 184.335 190.348 183.556 191.949 182.132C193.521 180.734 194.578 179.167 195.121 177.433C195.693 175.673 195.645 173.89 194.978 172.085L198.371 174.229C199.035 176.089 199.031 178.048 198.359 180.106C197.661 182.134 196.249 184.094 194.125 185.984Z" fill="black"/>
<path d="M211.427 171.382L194.698 145.317L199.223 142.413L203.768 149.495L202.189 148.009C201.753 145.742 202.082 143.587 203.177 141.542C204.272 139.497 206.065 137.675 208.557 136.076L211.492 140.649C211.274 140.743 211.067 140.853 210.87 140.979C210.706 141.084 210.543 141.189 210.379 141.295C207.854 142.915 206.338 144.952 205.831 147.407C205.323 149.863 205.985 152.516 207.815 155.369L216.148 168.352L211.427 171.382Z" fill="black"/>
<path d="M240.24 155.526C237.423 156.859 234.882 157.136 232.616 156.355C230.35 155.574 228.55 153.775 227.217 150.958L215.066 125.289L220.137 122.888L232.187 148.347C232.904 149.861 233.824 150.848 234.947 151.308C236.105 151.751 237.388 151.639 238.796 150.973C240.381 150.223 241.493 149.157 242.133 147.777L245.442 150.671C244.984 151.707 244.284 152.642 243.343 153.475C242.437 154.292 241.402 154.976 240.24 155.526ZM215.188 137.838L213.213 133.665L231.065 125.215L233.041 129.388L215.188 137.838Z" fill="black"/>
<path d="M257.84 115.782C260.28 115.104 262.55 114.979 264.65 115.406C266.787 115.823 268.647 116.843 270.23 118.465C271.813 120.087 273.012 122.362 273.825 125.29L278.597 142.462L273.192 143.964L268.592 127.411C267.789 124.521 266.471 122.542 264.638 121.475C262.842 120.397 260.668 120.212 258.116 120.922C256.201 121.453 254.635 122.293 253.418 123.44C252.2 124.587 251.4 126.002 251.019 127.685C250.675 129.358 250.806 131.282 251.411 133.459L255.682 148.83L250.277 150.332L241.985 120.492L247.164 119.052L249.402 127.103L247.963 125.199C248.396 122.976 249.475 121.038 251.2 119.386C252.924 117.735 255.137 116.533 257.84 115.782Z" fill="black"/>
<path d="M299.818 140.651C296.515 140.884 293.553 140.41 290.931 139.228C288.347 138.044 286.273 136.316 284.706 134.044C283.179 131.77 282.306 129.097 282.09 126.028C281.873 122.958 282.341 120.191 283.495 117.727C284.688 115.26 286.403 113.284 288.642 111.798C290.916 110.27 293.53 109.402 296.483 109.194C299.476 108.982 302.165 109.456 304.551 110.616C306.937 111.775 308.856 113.514 310.309 115.833C311.798 118.11 312.655 120.842 312.88 124.028C312.896 124.262 312.896 124.535 312.879 124.849C312.901 125.16 312.902 125.452 312.882 125.727L286.593 127.584L286.309 123.562L309.684 121.911L307.509 123.47C307.408 121.486 306.875 119.746 305.91 118.252C304.946 116.758 303.675 115.637 302.099 114.89C300.56 114.1 298.799 113.775 296.817 113.915C294.874 114.053 293.176 114.622 291.724 115.622C290.268 116.584 289.17 117.892 288.427 119.546C287.682 121.161 287.381 122.979 287.524 124.999L287.59 125.932C287.735 127.992 288.332 129.804 289.38 131.371C290.464 132.895 291.892 134.044 293.665 134.817C295.438 135.59 297.432 135.899 299.647 135.742C301.474 135.613 303.103 135.186 304.536 134.46C306.008 133.731 307.263 132.705 308.302 131.382L311.647 134.777C310.363 136.508 308.702 137.875 306.664 138.879C304.665 139.879 302.383 140.47 299.818 140.651Z" fill="black"/>
<path d="M319.027 139.938L321.763 109.088L327.119 109.563L326.375 117.945L326.037 115.803C327.08 113.745 328.66 112.242 330.778 111.296C332.896 110.35 335.429 110.007 338.378 110.269L337.898 115.682C337.669 115.623 337.438 115.583 337.205 115.562C337.011 115.545 336.817 115.528 336.623 115.51C333.635 115.245 331.189 115.928 329.284 117.558C327.379 119.188 326.277 121.691 325.978 125.067L324.615 140.434L319.027 139.938Z" fill="black"/>
<path d="M350.109 144.722C347.609 144.123 345.304 143.21 343.194 141.983C341.122 140.766 339.56 139.51 338.508 138.217L341.816 134.442C342.895 135.622 344.31 136.742 346.059 137.802C347.808 138.862 349.667 139.628 351.637 140.101C354.175 140.709 356.08 140.785 357.351 140.328C358.66 139.88 359.469 139.013 359.778 137.725C360.005 136.777 359.841 135.957 359.286 135.263C358.731 134.569 357.917 133.954 356.844 133.416C355.809 132.888 354.632 132.365 353.314 131.849C352.004 131.295 350.704 130.703 349.413 130.073C348.131 129.406 346.989 128.651 345.989 127.811C344.998 126.932 344.284 125.9 343.847 124.714C343.419 123.489 343.414 122.006 343.831 120.263C344.267 118.445 345.16 116.976 346.51 115.857C347.859 114.739 349.549 114.042 351.577 113.767C353.653 113.463 355.979 113.62 358.555 114.237C360.525 114.709 362.455 115.432 364.345 116.405C366.282 117.35 367.79 118.413 368.87 119.593L365.505 123.353C364.359 122.117 363.088 121.152 361.692 120.457C360.296 119.762 358.86 119.237 357.382 118.883C354.995 118.311 353.119 118.282 351.754 118.797C350.398 119.273 349.575 120.117 349.285 121.329C349.039 122.352 349.19 123.23 349.736 123.961C350.328 124.664 351.138 125.299 352.164 125.865C353.228 126.441 354.414 127.005 355.724 127.559C357.042 128.076 358.343 128.668 359.625 129.335C360.916 129.965 362.043 130.696 363.005 131.527C364.006 132.368 364.724 133.382 365.161 134.568C365.636 135.763 365.669 137.213 365.26 138.918C364.825 140.737 363.918 142.182 362.539 143.254C361.161 144.325 359.415 145.009 357.301 145.303C355.196 145.56 352.799 145.366 350.109 144.722Z" fill="black"/>
</svg>
