<svg width="24" height="24" viewBox="0 0 24 24" fill="none" xmlns="http://www.w3.org/2000/svg">
<path d="M20 12.0005C20 12.0397 20 12.0774 20 12.1174C19.9738 13.2143 19.5669 14.462 17.8462 14.462C16.0662 14.462 15.6923 13.1236 15.6923 12.0005V8.92357C15.6925 8.83921 15.6753 8.75571 15.6419 8.67826C15.6084 8.60081 15.5594 8.53106 15.4979 8.47335C15.4364 8.41564 15.3636 8.3712 15.2842 8.34279C15.2048 8.31437 15.1203 8.3026 15.0362 8.30818C14.8776 8.3218 14.7302 8.39502 14.6235 8.51308C14.5169 8.63115 14.459 8.78526 14.4615 8.94434V9.25203C13.906 8.75413 13.2127 8.43619 12.4729 8.34008C11.7331 8.24398 10.9815 8.37423 10.3172 8.71366C9.6529 9.0531 9.10699 9.5858 8.75138 10.2416C8.39578 10.8974 8.24717 11.6455 8.32513 12.3875C8.40309 13.1294 8.70395 13.8303 9.1881 14.3979C9.67225 14.9654 10.317 15.373 11.0373 15.567C11.7577 15.7609 12.5199 15.7321 13.2236 15.4843C13.9272 15.2366 14.5393 14.7815 14.9792 14.179C15.0561 14.3135 15.143 14.4421 15.2392 14.5636C15.6523 15.0774 16.4392 15.6928 17.8462 15.6928C18.0838 15.6936 18.321 15.6743 18.5554 15.6351C18.6133 15.6254 18.6728 15.6326 18.7268 15.6556C18.7809 15.6787 18.8272 15.7168 18.8602 15.7653C18.8933 15.8138 18.9118 15.8708 18.9136 15.9295C18.9153 15.9883 18.9002 16.0462 18.87 16.0966C18.1468 17.3098 17.1153 18.31 15.8805 18.9957C14.6457 19.6813 13.2514 20.028 11.8392 20.0005C7.62539 19.9159 4.16923 16.5282 4.00615 12.3166C3.96444 11.2538 4.1351 10.1933 4.50816 9.19717C4.88121 8.20106 5.44916 7.28934 6.17878 6.51536C6.90841 5.74137 7.78506 5.12066 8.75744 4.68953C9.72983 4.2584 10.7784 4.02551 11.8419 4.00449C12.9054 3.98347 13.9623 4.17474 14.951 4.5671C15.9397 4.95947 16.8402 5.54505 17.5998 6.2896C18.3594 7.03414 18.963 7.9227 19.3751 8.90329C19.7872 9.88389 19.9997 10.9368 20 12.0005ZM9.53846 12.0005C9.53846 12.4873 9.68283 12.9633 9.95331 13.368C10.2238 13.7728 10.6082 14.0883 11.058 14.2747C11.5078 14.461 12.0027 14.5097 12.4802 14.4147C12.9577 14.3198 13.3963 14.0853 13.7406 13.7411C14.0848 13.3968 14.3193 12.9582 14.4142 12.4807C14.5092 12.0032 14.4605 11.5083 14.2742 11.0585C14.0879 10.6087 13.7724 10.2243 13.3676 9.9538C12.9628 9.68332 12.4868 9.53895 12 9.53895C11.3472 9.53895 10.7211 9.79829 10.2594 10.2599C9.7978 10.7215 9.53846 11.3477 9.53846 12.0005Z" fill="#FF5C01"/>
</svg>
