<svg width="24" height="24" viewBox="0 0 24 24" fill="none" xmlns="http://www.w3.org/2000/svg">
<path d="M18.7692 4H5.23077C4.90435 4 4.5913 4.12967 4.36048 4.36048C4.12967 4.5913 4 4.90435 4 5.23077V18.7692C4 19.0957 4.12967 19.4087 4.36048 19.6395C4.5913 19.8703 4.90435 20 5.23077 20H18.7692C19.0957 20 19.4087 19.8703 19.6395 19.6395C19.8703 19.4087 20 19.0957 20 18.7692V5.23077C20 4.90435 19.8703 4.5913 19.6395 4.36048C19.4087 4.12967 19.0957 4 18.7692 4ZM9.53846 15.6923C9.53846 15.8555 9.47363 16.012 9.35822 16.1275C9.24281 16.2429 9.08629 16.3077 8.92308 16.3077C8.75987 16.3077 8.60334 16.2429 8.48793 16.1275C8.37253 16.012 8.30769 15.8555 8.30769 15.6923V10.7692C8.30769 10.606 8.37253 10.4495 8.48793 10.3341C8.60334 10.2187 8.75987 10.1538 8.92308 10.1538C9.08629 10.1538 9.24281 10.2187 9.35822 10.3341C9.47363 10.4495 9.53846 10.606 9.53846 10.7692V15.6923ZM8.92308 9.53846C8.74051 9.53846 8.56204 9.48432 8.41024 9.3829C8.25844 9.28147 8.14013 9.1373 8.07027 8.96863C8.0004 8.79996 7.98212 8.61436 8.01774 8.4353C8.05335 8.25624 8.14127 8.09177 8.27036 7.96267C8.39946 7.83358 8.56393 7.74566 8.74299 7.71004C8.92205 7.67443 9.10765 7.69271 9.27632 7.76257C9.44499 7.83244 9.58916 7.95075 9.69059 8.10255C9.79202 8.25435 9.84615 8.43282 9.84615 8.61538C9.84615 8.8602 9.7489 9.09499 9.57579 9.2681C9.40268 9.44121 9.16789 9.53846 8.92308 9.53846ZM16.3077 15.6923C16.3077 15.8555 16.2429 16.012 16.1275 16.1275C16.012 16.2429 15.8555 16.3077 15.6923 16.3077C15.5291 16.3077 15.3726 16.2429 15.2572 16.1275C15.1418 16.012 15.0769 15.8555 15.0769 15.6923V12.9231C15.0769 12.5151 14.9148 12.1237 14.6263 11.8352C14.3378 11.5467 13.9465 11.3846 13.5385 11.3846C13.1304 11.3846 12.7391 11.5467 12.4506 11.8352C12.1621 12.1237 12 12.5151 12 12.9231V15.6923C12 15.8555 11.9352 16.012 11.8198 16.1275C11.7044 16.2429 11.5478 16.3077 11.3846 16.3077C11.2214 16.3077 11.0649 16.2429 10.9495 16.1275C10.8341 16.012 10.7692 15.8555 10.7692 15.6923V10.7692C10.77 10.6185 10.8261 10.4733 10.9268 10.3611C11.0275 10.249 11.1659 10.1777 11.3157 10.1608C11.4655 10.144 11.6162 10.1826 11.7394 10.2695C11.8626 10.3564 11.9495 10.4855 11.9838 10.6323C12.4001 10.3499 12.8855 10.1862 13.3878 10.1589C13.8901 10.1315 14.3904 10.2415 14.8349 10.477C15.2794 10.7125 15.6514 11.0646 15.9109 11.4956C16.1703 11.9265 16.3075 12.42 16.3077 12.9231V15.6923Z" fill="#FF5C01"/>
</svg>
