<svg width="52" height="52" viewBox="0 0 52 52" fill="none" xmlns="http://www.w3.org/2000/svg">
<path fill-rule="evenodd" clip-rule="evenodd" d="M18.0393 9.00344C18.969 9.88969 19.9009 10.778 20.8328 11.6726C20.7227 11.7826 20.6126 11.9478 20.5025 12.1129H19.3467C18.0482 12.1312 16.7558 12.1434 15.4655 12.1556C12.8725 12.1801 10.2877 12.2045 7.67835 12.278C4.70622 12.333 3 14.0943 3 17.0664V27.579V41.2838C3 43.5404 4.10079 45.1365 6.13724 45.742C6.5988 45.8678 7.06036 45.8978 7.5463 45.9292C7.69778 45.9391 7.85163 45.949 8.00858 45.9621C8.00858 46.2782 8.01487 46.588 8.02106 46.8936C8.03321 47.4928 8.04503 48.0759 8.00858 48.659C7.95355 49.3746 8.11866 49.5947 8.88921 49.5947C12.0815 49.5397 15.2187 49.5397 18.411 49.5947C19.2366 49.5947 19.4017 49.2645 19.4017 48.549C19.4017 48.2812 19.4198 48.0133 19.4377 47.7492C19.4639 47.3619 19.4895 46.9825 19.4568 46.6226C19.4017 45.9071 19.6769 45.6869 20.3924 45.6869C22.1517 45.7236 23.8865 45.7114 25.6294 45.6992C26.5039 45.6931 27.3804 45.6869 28.2631 45.6869C28.5047 45.6869 28.7712 45.6662 29.0409 45.6452C29.7543 45.5898 30.4905 45.5325 30.8499 45.852C31.1971 46.1607 31.1658 46.8749 31.1349 47.5778C31.1217 47.8777 31.1087 48.1755 31.1251 48.4389V48.549C30.96 49.3746 31.3453 49.5397 32.1158 49.5397C34.0585 49.503 35.9768 49.5152 37.9031 49.5274C38.8694 49.5335 39.8376 49.5397 40.8121 49.5397C41.665 49.5397 42.0916 49.5397 42.3118 49.3265C42.532 49.1133 42.5458 48.6867 42.5733 47.8335C42.5733 47.6694 42.5612 47.4933 42.549 47.316C42.5162 46.8388 42.4828 46.3531 42.6834 46.0722C42.8305 45.8515 43.2479 45.8275 43.6729 45.8029C43.8839 45.7908 44.0969 45.7785 44.2795 45.742L44.2796 45.7419C44.6649 45.6319 45.0501 45.5218 45.3803 45.3016C46.9765 44.421 47.5819 42.99 47.5819 41.2287V17.7269C47.5819 14.0393 45.7656 12.1679 42.133 12.1679C38.4454 12.1129 34.7577 12.1129 31.0701 12.1129C30.7399 12.1129 30.4096 12.1129 30.0794 12.0578C30.0243 12.0028 29.9831 11.934 29.9418 11.8652C29.9005 11.7964 29.8592 11.7276 29.8042 11.6726C30.154 11.3577 30.515 11.0428 30.88 10.7244C31.6635 10.041 32.4657 9.3413 33.2166 8.59036C34.9779 6.8291 36.6841 5.06784 38.3353 3.25154C39.271 2.20579 39.1058 0.939889 38.0601 0.279416C37.1795 -0.270978 36.2988 0.00421938 35.3632 0.994928C34.1798 2.20585 32.9826 3.43054 31.7854 4.65522C30.5884 5.87979 29.3913 7.10436 28.208 8.31517C27.8778 8.6454 27.5476 8.70044 26.9972 8.6454C25.8964 8.48029 24.7406 8.59036 23.6398 8.81052C23.0894 8.9206 22.8692 8.81052 22.4839 8.42525C20.0072 5.83845 17.4755 3.25165 14.9437 0.664859L14.9435 0.664692C14.228 0.00421911 13.4024 -0.160899 12.5218 0.279416C11.6962 0.664692 11.366 1.43524 11.5861 2.26083C11.7513 2.81123 12.1916 3.36162 12.6319 3.80194C14.4156 5.54923 16.2234 7.27245 18.0393 9.00344ZM38.5004 41.8342H25.7313H25.7304C21.7128 41.8342 17.6952 41.8342 13.7327 41.8892C12.9071 41.8892 12.0815 41.8342 11.2559 41.669C9.32953 41.3388 7.84347 39.5775 7.84347 37.486C7.78843 31.872 7.78843 26.203 7.84347 20.589C7.84347 17.892 9.87992 15.9656 12.5769 15.9656H37.7299C39.4911 15.9656 41.1423 16.3509 42.133 18.0021C42.5183 18.6626 42.8485 19.5432 42.8485 20.3138C42.9036 26.1479 42.9036 32.0371 42.9036 37.9264C42.9036 40.0729 40.9221 41.8342 38.5004 41.8342ZM9.97819 24.1665C9.9843 24.7169 9.99042 25.2673 9.99042 25.8177C10.0294 25.8567 10.0684 25.8888 10.105 25.9189C10.1716 25.9737 10.2301 26.0218 10.2656 26.0929C10.6772 25.6626 11.0825 25.2323 11.4857 24.8041C12.2687 23.9727 13.0439 23.1495 13.8432 22.3502C14.4486 21.6898 15.2742 21.6347 15.8246 22.1851C16.375 22.7355 16.3199 23.451 15.6044 24.1665C14.7513 25.0472 13.8845 25.9278 13.0176 26.8084C12.1507 27.689 11.2839 28.5697 10.4307 29.4503C10.1555 29.7255 9.93538 30.1658 9.93538 30.5511C9.88034 32.4224 9.88034 34.2938 9.93538 36.1651C9.99042 38.4768 11.0362 39.4675 13.3478 39.4675H34.4279C34.8132 39.4675 35.1985 39.4736 35.5837 39.4797C36.3543 39.4919 37.1248 39.5042 37.8954 39.4675C39.6016 39.4124 40.6474 38.3667 40.6474 36.6605C40.7024 31.4317 40.7024 26.1479 40.6474 20.9192C40.6474 19.3231 39.6016 18.3324 38.0055 18.3324C32.3568 18.2957 26.7326 18.3079 21.1002 18.3201C18.281 18.3262 15.4597 18.3324 12.6323 18.3324C11.2563 18.3324 10.0455 19.4882 9.99042 20.8642C9.95372 21.965 9.96596 23.0657 9.97819 24.1665ZM22.8967 22.6635C22.9594 22.7621 23.023 22.8621 23.0898 22.9557C23.0078 23.1033 22.9355 23.2461 22.8672 23.381C22.7064 23.6988 22.5675 23.9734 22.3743 24.1665C21.0809 25.57 19.7737 26.9598 18.4665 28.3495C17.1593 29.7393 15.8521 31.129 14.5587 32.5325C14.0633 33.0829 13.4029 33.3581 12.7974 32.8077C12.137 32.2573 12.0269 31.4868 12.6323 30.8263C13.3262 30.0663 14.0598 29.3262 14.7973 28.582C15.2883 28.0867 15.781 27.5895 16.2649 27.0836L16.265 27.0835C17.751 25.4874 19.2371 23.8913 20.7781 22.3502C21.1084 22.02 21.7688 21.965 22.2642 22.02C22.5143 22.0617 22.7012 22.3558 22.8967 22.6635Z" fill="#FF5C01"/>
<path fill-rule="evenodd" clip-rule="evenodd" d="M19.4446 10.4088C20.3743 11.295 21.3062 12.1833 22.238 13.0779C22.128 13.188 22.0179 13.3531 21.9078 13.5182H20.752C19.4535 13.5365 18.1611 13.5487 16.8708 13.5609C14.2777 13.5854 11.6929 13.6098 9.08362 13.6833C6.11149 13.7384 4.40527 15.4996 4.40527 18.4718V28.9843V42.6891C4.40527 44.9457 5.50606 46.5419 7.54252 47.1473C8.00407 47.2732 8.46563 47.3031 8.95157 47.3346C9.10305 47.3444 9.2569 47.3544 9.41386 47.3674C9.41386 47.6835 9.42014 47.9933 9.42634 48.299C9.43848 48.8981 9.4503 49.4812 9.41386 50.0644C9.35882 50.7799 9.52394 51 10.2945 51C13.4868 50.945 16.624 50.945 19.8163 51C20.6419 51 20.807 50.6698 20.807 49.9543C20.807 49.6865 20.8251 49.4187 20.843 49.1545C20.8691 48.7673 20.8948 48.3879 20.8621 48.0279C20.807 47.3124 21.0822 47.0923 21.7977 47.0923C23.5569 47.1289 25.2917 47.1167 27.0346 47.1045C27.9091 47.0984 28.7857 47.0923 29.6684 47.0923C29.91 47.0923 30.1765 47.0715 30.4462 47.0506C31.1596 46.9951 31.8958 46.9379 32.2552 47.2574C32.6024 47.566 32.571 48.2802 32.5402 48.9831C32.527 49.283 32.5139 49.5808 32.5304 49.8442V49.9543C32.3653 50.7799 32.7506 50.945 33.5211 50.945C35.4638 50.9084 37.3821 50.9205 39.3084 50.9327C40.2747 50.9389 41.2429 50.945 42.2173 50.945C43.0703 50.945 43.4968 50.945 43.717 50.7318C43.9373 50.5186 43.9511 50.092 43.9786 49.2388C43.9786 49.0748 43.9665 48.8986 43.9543 48.7213C43.9214 48.2441 43.888 47.7584 44.0887 47.4775C44.2358 47.2569 44.6532 47.2328 45.0781 47.2083C45.2892 47.1961 45.5022 47.1838 45.6848 47.1473C46.0701 47.0372 46.4554 46.9271 46.7856 46.707C48.3817 45.8263 48.9872 44.3953 48.9872 42.6341V19.1322C48.9872 15.4446 47.1709 13.5733 43.5383 13.5733C39.8506 13.5182 36.163 13.5182 32.4754 13.5182C32.1451 13.5182 31.8149 13.5182 31.4847 13.4632C31.4296 13.4081 31.3883 13.3393 31.3471 13.2705C31.3058 13.2017 31.2645 13.1329 31.2095 13.0779C31.5593 12.763 31.9203 12.4482 32.2853 12.1298C33.0688 11.4463 33.871 10.7466 34.6219 9.9957C36.3832 8.23444 38.0894 6.47318 39.7406 4.65688C40.6762 3.61113 40.5111 2.34522 39.4654 1.68475C38.5847 1.13436 37.7041 1.40955 36.7684 2.40026C35.5849 3.6113 34.3876 4.8361 33.1904 6.0609C31.9934 7.28536 30.7965 8.50981 29.6133 9.7205C29.2831 10.0507 28.9528 10.1058 28.4024 10.0507C27.3017 9.88562 26.1458 9.9957 25.045 10.2159C24.4946 10.3259 24.2745 10.2159 23.8892 9.83058C21.4125 7.24378 18.8807 4.65697 16.349 2.07017L16.3488 2.07003C15.6333 1.40955 14.8077 1.24444 13.9271 1.68475C13.1015 2.07003 12.7713 2.84058 12.9914 3.66617C13.1565 4.21656 13.5969 4.76696 14.0372 5.20727C15.8209 6.95457 17.6286 8.67778 19.4446 10.4088ZM39.9057 43.2395H27.1365C23.1187 43.2395 19.1008 43.2395 15.138 43.2945C14.3124 43.2945 13.4868 43.2395 12.6612 43.0744C10.7348 42.7441 9.24874 40.9829 9.24874 38.8914C9.1937 33.2774 9.1937 27.6083 9.24874 21.9943C9.24874 19.2974 11.2852 17.371 13.9821 17.371H39.1351C40.8964 17.371 42.5476 17.7563 43.5383 19.4074C43.9236 20.0679 44.2538 20.9485 44.2538 21.7191C44.3088 27.5533 44.3088 33.4425 44.3088 39.3317C44.3088 41.4782 42.3274 43.2395 39.9057 43.2395ZM11.3834 25.5718C11.3895 26.1222 11.3956 26.6726 11.3956 27.223C11.4346 27.262 11.4736 27.2941 11.5102 27.3242C11.5768 27.379 11.6353 27.4271 11.6708 27.4982C12.0824 27.0679 12.4877 26.6376 12.8909 26.2094C13.6739 25.378 14.4491 24.5548 15.2484 23.7555C15.8538 23.0951 16.6794 23.04 17.2298 23.5904C17.7802 24.1408 17.7252 24.8563 17.0097 25.5718C16.1566 26.4525 15.2897 27.3331 14.4228 28.2137C13.556 29.0943 12.6891 29.975 11.836 30.8556C11.5608 31.1308 11.3406 31.5711 11.3406 31.9564C11.2856 33.8277 11.2856 35.6991 11.3406 37.5704C11.3956 39.8821 12.4414 40.8728 14.753 40.8728H35.8331C36.2184 40.8728 36.6037 40.8789 36.9889 40.885C37.7595 40.8972 38.5301 40.9095 39.3006 40.8728C41.0068 40.8177 42.0526 39.772 42.0526 38.0658C42.1076 32.837 42.1076 27.5533 42.0526 22.3245C42.0526 20.7284 41.0068 19.7377 39.4107 19.7377C33.762 19.701 28.1378 19.7132 22.5054 19.7254C19.6862 19.7315 16.8649 19.7377 14.0375 19.7377C12.6615 19.7377 11.4507 20.8935 11.3956 22.2695C11.3589 23.3703 11.3712 24.471 11.3834 25.5718ZM24.302 24.0688C24.3646 24.1674 24.4282 24.2674 24.495 24.361C24.413 24.5086 24.3407 24.6514 24.2724 24.7863C24.1116 25.1041 23.9727 25.3787 23.7795 25.5718C22.4861 26.9753 21.1789 28.3651 19.8717 29.7548C18.5645 31.1446 17.2573 32.5343 15.9639 33.9378C15.4685 34.4882 14.8081 34.7634 14.2026 34.213C13.5422 33.6626 13.4321 32.8921 14.0375 32.2316C14.7314 31.4716 15.465 30.7315 16.2025 29.9873C16.6935 29.492 17.1862 28.9948 17.6701 28.4889L17.6702 28.4888C19.1562 26.8927 20.6423 25.2966 22.1834 23.7555C22.5136 23.4253 23.1741 23.3703 23.6694 23.4253C23.9195 23.467 24.1064 23.7611 24.302 24.0688Z" fill="white"/>
</svg>
