<svg width="166" height="166" viewBox="0 0 166 166" fill="none" xmlns="http://www.w3.org/2000/svg">
<path d="M82.4941 58.4068L83.4628 62.0026C86.9775 75.0571 97.1759 85.2555 110.23 88.7702L113.826 89.7388C115.327 90.1428 115.327 92.2707 113.826 92.6746L110.23 93.6433C97.1744 97.1579 86.9775 107.356 83.4628 120.411L82.4941 124.007C82.0902 125.507 79.9623 125.507 79.5584 124.007L78.5897 120.411C75.075 107.356 64.8766 97.1579 51.8221 93.6433L48.2263 92.6746C46.7257 92.2707 46.7257 90.1428 48.2263 89.7388L51.8221 88.7702C64.8781 85.2555 75.075 75.0571 78.5897 62.0026L79.5584 58.4068C79.9623 56.9076 82.0902 56.9076 82.4941 58.4068ZM46.1909 19.6785L46.7755 21.849C48.8977 29.7304 55.0552 35.8878 62.9365 38.01L65.1071 38.5946C66.0131 38.8378 66.0131 40.1237 65.1071 40.3669L62.9365 40.9515C55.0552 43.0737 48.8977 49.2311 46.7755 57.1125L46.1909 59.283C45.9477 60.1891 44.6619 60.1891 44.4186 59.283L43.8326 57.1125C41.7105 49.2311 35.553 43.0737 27.6716 40.9515L25.5011 40.3669C24.595 40.1237 24.595 38.8378 25.5011 38.5946L27.6716 38.01C35.553 35.8878 41.7105 29.7304 43.8326 21.849L44.4172 19.6785C44.6619 18.7738 45.9463 18.7738 46.1909 19.6785ZM129.896 41.9144L130.35 43.5985C131.997 49.7161 136.775 54.4939 142.892 56.141L144.576 56.5947C145.279 56.7839 145.279 57.781 144.576 57.9702L142.892 58.4239C136.775 60.071 131.997 64.8488 130.35 70.9664L129.896 72.6505C129.707 73.3531 128.71 73.3531 128.521 72.6505L128.067 70.9664C126.42 64.8502 121.642 60.071 115.524 58.4239L113.84 57.9702C113.138 57.781 113.138 56.7839 113.84 56.5947L115.524 56.141C121.642 54.4939 126.42 49.7161 128.067 43.5985L128.521 41.9144C128.71 41.2118 129.707 41.2118 129.896 41.9144ZM37.5827 113.174L38.0365 114.858C39.6836 120.976 44.4613 125.753 50.5789 127.4L52.263 127.854C52.9657 128.043 52.9657 129.04 52.263 129.23L50.5789 129.683C44.4613 131.33 39.6836 136.108 38.0365 142.226L37.5827 143.91C37.3936 144.613 36.3965 144.613 36.2073 143.91L35.7536 142.226C34.1064 136.11 29.3287 131.33 23.2111 129.683L21.527 129.23C20.8243 129.04 20.8243 128.043 21.527 127.854L23.2111 127.4C29.3287 125.753 34.1064 120.976 35.7536 114.858L36.2073 113.174C36.3965 112.471 37.3936 112.471 37.5827 113.174ZM119.615 115.737L120.069 117.421C121.716 123.539 126.494 128.316 132.611 129.964L134.296 130.417C134.998 130.606 134.998 131.604 134.296 131.793L132.611 132.246C126.494 133.894 121.716 138.671 120.069 144.789L119.615 146.473C119.426 147.176 118.429 147.176 118.24 146.473L117.786 144.788C116.139 138.671 111.361 133.892 105.244 132.245L103.559 131.791C102.857 131.602 102.857 130.605 103.559 130.416L105.244 129.962C111.361 128.315 116.139 123.537 117.786 117.42L118.24 115.736C118.429 115.034 119.426 115.034 119.615 115.737Z" fill="#FF5C01"/>
<path d="M83.4941 59.4068L84.4628 63.0026C87.9775 76.0571 98.1759 86.2555 111.23 89.7702L114.826 90.7388C116.327 91.1428 116.327 93.2707 114.826 93.6746L111.23 94.6433C98.1744 98.1579 87.9775 108.356 84.4628 121.411L83.4941 125.007C83.0902 126.507 80.9623 126.507 80.5584 125.007L79.5897 121.411C76.075 108.356 65.8766 98.1579 52.8221 94.6433L49.2263 93.6746C47.7257 93.2707 47.7257 91.1428 49.2263 90.7388L52.8221 89.7702C65.8781 86.2555 76.075 76.0571 79.5897 63.0026L80.5584 59.4068C80.9623 57.9076 83.0902 57.9076 83.4941 59.4068ZM47.1909 20.6785L47.7755 22.849C49.8977 30.7304 56.0552 36.8878 63.9365 39.01L66.1071 39.5946C67.0131 39.8378 67.0131 41.1237 66.1071 41.3669L63.9365 41.9515C56.0552 44.0737 49.8977 50.2311 47.7755 58.1125L47.1909 60.283C46.9477 61.1891 45.6619 61.1891 45.4186 60.283L44.8326 58.1125C42.7105 50.2311 36.553 44.0737 28.6716 41.9515L26.5011 41.3669C25.595 41.1237 25.595 39.8378 26.5011 39.5946L28.6716 39.01C36.553 36.8878 42.7105 30.7304 44.8326 22.849L45.4172 20.6785C45.6619 19.7738 46.9463 19.7738 47.1909 20.6785ZM130.896 42.9144L131.35 44.5985C132.997 50.7161 137.775 55.4939 143.892 57.141L145.576 57.5947C146.279 57.7839 146.279 58.781 145.576 58.9702L143.892 59.4239C137.775 61.071 132.997 65.8488 131.35 71.9664L130.896 73.6505C130.707 74.3531 129.71 74.3531 129.521 73.6505L129.067 71.9664C127.42 65.8502 122.642 61.071 116.524 59.4239L114.84 58.9702C114.138 58.781 114.138 57.7839 114.84 57.5947L116.524 57.141C122.642 55.4939 127.42 50.7161 129.067 44.5985L129.521 42.9144C129.71 42.2118 130.707 42.2118 130.896 42.9144ZM38.5827 114.174L39.0365 115.858C40.6836 121.976 45.4613 126.753 51.5789 128.4L53.263 128.854C53.9657 129.043 53.9657 130.04 53.263 130.23L51.5789 130.683C45.4613 132.33 40.6836 137.108 39.0365 143.226L38.5827 144.91C38.3936 145.613 37.3965 145.613 37.2073 144.91L36.7536 143.226C35.1064 137.11 30.3287 132.33 24.2111 130.683L22.527 130.23C21.8243 130.04 21.8243 129.043 22.527 128.854L24.2111 128.4C30.3287 126.753 35.1064 121.976 36.7536 115.858L37.2073 114.174C37.3965 113.471 38.3936 113.471 38.5827 114.174ZM120.615 116.737L121.069 118.421C122.716 124.539 127.494 129.316 133.611 130.964L135.296 131.417C135.998 131.606 135.998 132.604 135.296 132.793L133.611 133.246C127.494 134.894 122.716 139.671 121.069 145.789L120.615 147.473C120.426 148.176 119.429 148.176 119.24 147.473L118.786 145.788C117.139 139.671 112.361 134.892 106.244 133.245L104.559 132.791C103.857 132.602 103.857 131.605 104.559 131.416L106.244 130.962C112.361 129.315 117.139 124.537 118.786 118.42L119.24 116.736C119.429 116.034 120.426 116.034 120.615 116.737Z" fill="white"/>
</svg>
