<svg width="401" height="401" viewBox="0 0 401 401" fill="none" xmlns="http://www.w3.org/2000/svg">
<path d="M297.028 255.654L318.352 270.978L311.894 279.965C310.259 282.239 308.375 283.919 306.24 285.003C304.092 286.107 301.872 286.56 299.582 286.362C297.277 286.183 295.068 285.335 292.956 283.818C290.844 282.3 289.336 280.477 288.432 278.349C287.514 276.242 287.236 273.993 287.597 271.605C287.944 269.236 288.935 266.915 290.569 264.64L297.028 255.654ZM297.489 260.605L293.351 266.362C292.081 268.129 291.322 269.893 291.073 271.654C290.809 273.435 291.02 275.112 291.708 276.684C292.416 278.27 293.561 279.633 295.146 280.771C296.75 281.924 298.407 282.576 300.116 282.726C301.825 282.876 303.481 282.543 305.086 281.724C306.675 280.927 308.105 279.644 309.375 277.877L313.512 272.12L297.489 260.605Z" fill="black"/>
<path d="M273.64 283.05C275.135 281.721 276.764 280.673 278.527 279.908C280.306 279.162 281.912 278.804 283.346 278.835L284.253 281.943C282.924 281.954 281.489 282.26 279.948 282.861C278.407 283.462 277.011 284.319 275.759 285.433C274.619 286.447 273.811 287.4 273.333 288.294C272.856 289.187 272.649 290.007 272.711 290.755C272.791 291.521 273.088 292.194 273.603 292.773C274.202 293.446 274.908 293.788 275.722 293.801C276.517 293.829 277.378 293.649 278.304 293.261C279.228 292.907 280.194 292.45 281.201 291.889C282.208 291.328 283.25 290.786 284.325 290.264C285.399 289.778 286.465 289.415 287.524 289.176C288.565 288.953 289.591 288.978 290.602 289.249C291.63 289.54 292.61 290.208 293.541 291.254C294.438 292.263 294.999 293.421 295.224 294.727C295.447 296.069 295.232 297.482 294.578 298.968C293.922 300.488 292.735 302.013 291.016 303.542C289.876 304.556 288.613 305.412 287.226 306.111C285.838 306.809 284.485 307.244 283.164 307.415L282.094 304.35C283.433 304.162 284.678 303.774 285.829 303.186C286.996 302.617 288.018 301.941 288.897 301.16C289.999 300.179 290.781 299.233 291.241 298.321C291.702 297.409 291.893 296.57 291.813 295.804C291.716 295.054 291.409 294.389 290.894 293.81C290.279 293.119 289.573 292.759 288.778 292.73C287.964 292.718 287.103 292.898 286.196 293.27C285.269 293.659 284.294 294.124 283.271 294.667C282.264 295.228 281.232 295.761 280.175 296.266C279.099 296.788 278.041 297.16 277.001 297.383C275.942 297.622 274.906 297.606 273.895 297.334C272.883 297.062 271.92 296.413 271.006 295.385C270.125 294.395 269.573 293.229 269.35 291.887C269.144 290.564 269.378 289.134 270.053 287.597C270.725 286.095 271.921 284.58 273.64 283.05Z" fill="black"/>
<path d="M246.861 300.668C248.35 299.956 249.877 299.642 251.442 299.726C252.994 299.843 254.467 300.401 255.858 301.399C257.227 302.408 258.397 303.928 259.367 305.959C260.338 307.99 260.797 309.849 260.744 311.537C260.669 313.236 260.184 314.715 259.289 315.975C258.371 317.245 257.145 318.246 255.611 318.979C253.85 319.82 252.11 320.181 250.39 320.06C248.669 319.94 247.085 319.38 245.638 318.381C244.201 317.405 243.046 316.003 242.173 314.175C241.299 312.347 240.929 310.556 241.061 308.802C241.193 307.048 241.752 305.464 242.74 304.05C243.727 302.636 245.101 301.509 246.861 300.668ZM253.332 289.759L265.041 314.266L261.927 315.753L259.614 310.913L257.828 306.653L255.5 302.651L250.082 291.312L253.332 289.759ZM248.49 303.381C247.339 303.931 246.437 304.681 245.782 305.632C245.105 306.593 244.733 307.671 244.667 308.867C244.589 310.096 244.852 311.342 245.456 312.606C246.07 313.892 246.869 314.869 247.853 315.535C248.825 316.235 249.897 316.623 251.071 316.7C252.221 316.788 253.372 316.557 254.523 316.007C255.651 315.468 256.554 314.718 257.231 313.757C257.886 312.806 258.257 311.728 258.346 310.521C258.423 309.348 258.154 308.118 257.54 306.832C256.936 305.569 256.143 304.576 255.16 303.853C254.165 303.164 253.093 302.776 251.942 302.688C250.769 302.611 249.618 302.842 248.49 303.381Z" fill="black"/>
<path d="M222.729 308.983L223.766 313.055L224.142 313.772L225.909 320.716C226.285 322.194 227.012 323.222 228.088 323.8C229.146 324.408 230.535 324.493 232.256 324.055C233.395 323.765 234.46 323.287 235.452 322.622C236.45 321.981 237.245 321.25 237.836 320.428L239.956 322.676C239.166 323.728 238.133 324.636 236.856 325.4C235.562 326.194 234.151 326.785 232.624 327.174C229.982 327.847 227.783 327.723 226.026 326.802C224.269 325.881 223.054 324.1 222.382 321.459L219.421 309.825L222.729 308.983ZM228.999 307.155C230.429 306.791 231.751 306.712 232.965 306.92C234.155 307.133 235.149 307.59 235.946 308.29C236.75 309.014 237.291 309.922 237.568 311.012C237.834 312.055 237.832 313.061 237.563 314.033C237.27 315.011 236.631 315.896 235.645 316.689C234.636 317.488 233.174 318.131 231.259 318.618L225.152 320.173L224.513 317.665L230.475 316.147C232.22 315.703 233.322 315.113 233.779 314.377C234.237 313.641 234.361 312.861 234.152 312.037C233.911 311.092 233.341 310.424 232.442 310.033C231.548 309.667 230.435 309.654 229.102 309.993C227.794 310.326 226.729 310.907 225.907 311.735C225.062 312.57 224.562 313.6 224.41 314.826L223.109 312.603C223.279 311.346 223.86 310.231 224.85 309.256C225.847 308.306 227.23 307.605 228.999 307.155Z" fill="black"/>
<path d="M214.699 310.326L216.536 330.123L213.099 330.442L212.6 325.063L213.061 326.377C212.641 327.797 211.816 328.929 210.588 329.771C209.36 330.613 207.8 331.122 205.908 331.298L205.585 327.824C205.737 327.835 205.888 327.834 206.037 327.82C206.162 327.808 206.286 327.797 206.411 327.785C208.328 327.607 209.794 326.894 210.808 325.644C211.823 324.395 212.229 322.687 212.028 320.52L211.113 310.659L214.699 310.326Z" fill="black"/>
<path d="M193.5 310.809C195.5 310.881 197.03 311.475 198.09 312.59C199.151 313.705 199.645 315.262 199.572 317.261L198.908 335.481L195.309 335.349L195.967 317.28C196.007 316.205 195.774 315.371 195.27 314.777C194.741 314.182 193.977 313.867 192.977 313.83C191.853 313.789 190.904 314.067 190.132 314.665L189.101 312.037C189.668 311.582 190.343 311.257 191.126 311.06C191.884 310.862 192.676 310.779 193.5 310.809ZM202.548 328.293L202.44 331.255L189.769 330.793L189.877 327.832L202.548 328.293Z" fill="black"/>
<path d="M171.792 328.179C170.201 327.842 168.872 327.241 167.802 326.375C166.708 325.505 165.951 324.373 165.53 322.98C165.109 321.587 165.101 319.937 165.505 318.028L167.875 306.835L171.398 307.581L169.114 318.371C168.715 320.255 168.879 321.772 169.607 322.923C170.31 324.069 171.494 324.818 173.157 325.17C174.405 325.435 175.546 325.42 176.579 325.128C177.612 324.835 178.487 324.267 179.203 323.421C179.894 322.571 180.39 321.436 180.691 320.017L182.812 309.998L186.335 310.744L182.217 330.195L178.84 329.48L179.951 324.232L180.207 325.743C179.301 326.88 178.113 327.664 176.641 328.094C175.17 328.523 173.553 328.552 171.792 328.179Z" fill="black"/>
<path d="M155.591 301.581C157.54 302.431 159.084 303.581 160.224 305.034C161.342 306.476 162.008 308.076 162.224 309.834C162.417 311.582 162.118 313.362 161.329 315.173C160.539 316.984 159.45 318.419 158.061 319.477C156.649 320.526 155.085 321.14 153.37 321.32C151.622 321.513 149.876 321.229 148.134 320.47C146.369 319.7 144.98 318.631 143.967 317.262C142.954 315.893 142.379 314.332 142.242 312.581C142.073 310.843 142.398 309.034 143.217 307.154C143.277 307.017 143.358 306.861 143.461 306.688C143.541 306.504 143.628 306.337 143.721 306.187L159.229 312.948L158.195 315.321L144.406 309.309L146.107 309.069C145.574 310.228 145.36 311.376 145.464 312.513C145.569 313.65 145.958 314.665 146.633 315.559C147.274 316.466 148.179 317.175 149.348 317.684C150.495 318.184 151.63 318.365 152.754 318.228C153.868 318.113 154.882 317.696 155.796 316.976C156.7 316.279 157.412 315.334 157.931 314.142L158.171 313.592C158.701 312.377 158.901 311.168 158.77 309.965C158.607 308.775 158.136 307.697 157.357 306.73C156.578 305.763 155.535 304.994 154.229 304.425C153.151 303.955 152.097 303.714 151.066 303.701C150.012 303.678 148.992 303.888 148.008 304.332L147.115 301.405C148.36 300.802 149.711 300.518 151.169 300.554C152.604 300.579 154.078 300.922 155.591 301.581Z" fill="black"/>
<path d="M143.473 295.647L132.692 312.353L129.792 310.481L132.721 305.943L132.273 307.26C131.065 308.118 129.717 308.499 128.232 308.403C126.746 308.307 125.204 307.744 123.607 306.713L125.499 303.782C125.611 303.884 125.731 303.976 125.857 304.057C125.962 304.125 126.067 304.193 126.172 304.261C127.79 305.305 129.384 305.649 130.953 305.293C132.522 304.936 133.897 303.844 135.077 302.016L140.447 293.695L143.473 295.647Z" fill="black"/>
<path d="M127.63 283.88C128.872 284.967 129.91 286.174 130.743 287.501C131.557 288.811 132.069 289.991 132.281 291.04L129.275 292.198C129.013 291.205 128.544 290.146 127.866 289.022C127.189 287.897 126.361 286.907 125.382 286.05C124.121 284.947 123.061 284.335 122.202 284.215C121.325 284.079 120.606 284.331 120.046 284.971C119.634 285.441 119.483 285.956 119.591 286.516C119.699 287.076 119.978 287.669 120.427 288.295C120.858 288.904 121.371 289.552 121.966 290.239C122.545 290.945 123.107 291.67 123.653 292.413C124.182 293.175 124.606 293.945 124.923 294.721C125.224 295.516 125.322 296.316 125.216 297.121C125.094 297.944 124.654 298.789 123.896 299.655C123.106 300.558 122.16 301.126 121.059 301.359C119.958 301.592 118.79 301.484 117.555 301.035C116.284 300.588 115.009 299.804 113.729 298.684C112.751 297.828 111.87 296.841 111.086 295.723C110.267 294.608 109.728 293.554 109.466 292.562L112.501 291.429C112.784 292.473 113.218 293.401 113.803 294.213C114.389 295.025 115.049 295.752 115.783 296.394C116.969 297.431 118.027 298.008 118.956 298.123C119.869 298.257 120.589 298.023 121.116 297.421C121.56 296.913 121.737 296.369 121.645 295.79C121.518 295.214 121.247 294.612 120.833 293.984C120.4 293.339 119.894 292.664 119.316 291.958C118.721 291.271 118.158 290.546 117.629 289.784C117.083 289.041 116.661 288.289 116.362 287.529C116.044 286.753 115.938 285.962 116.044 285.158C116.131 284.337 116.545 283.503 117.287 282.656C118.077 281.752 119.024 281.202 120.127 281.004C121.231 280.806 122.427 280.939 123.716 281.403C124.989 281.885 126.294 282.711 127.63 283.88Z" fill="black"/>
<path d="M102.705 254.424L78.5389 264.698L74.2094 254.513C73.1136 251.935 72.6562 249.453 72.8373 247.066C73.0085 244.657 73.7733 242.524 75.1317 240.67C76.4803 238.792 78.3514 237.344 80.7451 236.327C83.1387 235.309 85.4795 234.966 87.7673 235.298C90.0454 235.607 92.1115 236.536 93.9657 238.085C95.81 239.61 97.2801 241.662 98.3759 244.24L102.705 254.424ZM98.2342 252.249L95.4604 245.724C94.6092 243.722 93.4956 242.157 92.1197 241.03C90.734 239.88 89.191 239.19 87.4906 238.962C85.7672 238.744 84.0079 239.016 82.2127 239.779C80.3945 240.552 78.9776 241.63 77.9621 243.013C76.9466 244.395 76.3722 245.985 76.2389 247.781C76.0958 249.554 76.4498 251.441 77.301 253.444L80.0748 259.968L98.2342 252.249Z" fill="black"/>
<path d="M91.3884 220.167C91.754 222.135 91.8085 224.07 91.5521 225.975C91.271 227.884 90.747 229.444 89.98 230.655L86.8496 229.825C87.5273 228.682 88.0073 227.295 88.2895 225.666C88.5716 224.036 88.5596 222.398 88.2534 220.75C87.9746 219.25 87.5763 218.065 87.0584 217.195C86.5405 216.325 85.9453 215.723 85.273 215.39C84.576 215.062 83.8464 214.968 83.0842 215.11C82.199 215.275 81.5408 215.702 81.1096 216.393C80.6738 217.059 80.3829 217.889 80.2369 218.883C80.0618 219.856 79.9541 220.919 79.9139 222.071C79.8736 223.224 79.7988 224.395 79.6894 225.585C79.5508 226.756 79.3102 227.856 78.9675 228.886C78.6203 229.892 78.069 230.758 77.3135 231.483C76.5334 232.213 75.455 232.706 74.078 232.962C72.7503 233.209 71.4692 233.091 70.2348 232.608C68.9712 232.105 67.8727 231.19 66.9391 229.863C65.9765 228.516 65.2849 226.711 64.8644 224.449C64.5857 222.949 64.5059 221.425 64.6251 219.877C64.7442 218.328 65.0721 216.944 65.6087 215.726L68.7854 216.394C68.2535 217.638 67.9419 218.904 67.8508 220.193C67.7351 221.486 67.7846 222.711 67.9994 223.866C68.269 225.317 68.6751 226.475 69.2176 227.341C69.7601 228.207 70.3798 228.804 71.0768 229.132C71.7692 229.436 72.4965 229.517 73.2587 229.375C74.1684 229.206 74.8412 228.789 75.277 228.122C75.7083 227.432 75.9992 226.602 76.1497 225.633C76.2957 224.639 76.4011 223.564 76.4659 222.407C76.5061 221.255 76.5832 220.096 76.6972 218.93C76.8066 217.74 77.0349 216.641 77.3822 215.636C77.7249 214.605 78.2739 213.727 79.0294 213.002C79.7848 212.277 80.8387 211.788 82.1911 211.537C83.4942 211.295 84.7776 211.425 86.0412 211.928C87.2802 212.435 88.3833 213.375 89.3505 214.747C90.2886 216.098 90.9679 217.905 91.3884 220.167Z" fill="black"/>
<path d="M90.1486 188.122C89.9844 189.764 89.4605 191.232 88.5771 192.526C87.6713 193.793 86.4308 194.762 84.8556 195.434C83.2829 196.081 81.3767 196.292 79.137 196.069C76.8974 195.845 75.0696 195.272 73.6537 194.351C72.2402 193.406 71.2274 192.224 70.6152 190.805C70.0055 189.362 69.7853 187.794 69.9545 186.102C70.1486 184.161 70.7434 182.486 71.7388 181.078C72.7342 179.669 74.0344 178.606 75.6395 177.886C77.2197 177.165 79.0176 176.905 81.0333 177.106C83.049 177.308 84.7722 177.92 86.2031 178.943C87.634 179.966 88.6978 181.266 89.3946 182.843C90.0914 184.421 90.3427 186.181 90.1486 188.122ZM96.1172 199.312L69.0923 196.61L69.4357 193.176L74.7735 193.709L79.3423 194.393L83.9709 194.478L96.4756 195.729L96.1172 199.312ZM86.9832 188.107C87.1102 186.837 86.9372 185.677 86.4644 184.624C85.9941 183.546 85.265 182.669 84.277 181.992C83.2667 181.288 82.0648 180.866 80.6712 180.727C79.2528 180.585 78.0035 180.762 76.9235 181.257C75.8211 181.725 74.9327 182.44 74.2584 183.403C73.5865 184.342 73.1871 185.445 73.0602 186.714C72.9357 187.959 73.1087 189.119 73.579 190.197C74.0518 191.25 74.7809 192.127 75.7664 192.829C76.7294 193.503 77.9202 193.911 79.3386 194.053C80.7322 194.192 81.9926 194.029 83.1199 193.564C84.2248 193.071 85.1131 192.356 85.785 191.418C86.4594 190.455 86.8588 189.351 86.9832 188.107Z" fill="black"/>
<path d="M95.4696 163.389L91.4509 162.163L90.6427 162.113L83.7893 160.022C82.3302 159.577 81.0745 159.665 80.0225 160.285C78.9538 160.874 78.1604 162.018 77.6424 163.716C77.2994 164.841 77.1551 165.999 77.2095 167.193C77.24 168.378 77.4531 169.437 77.8489 170.368L74.8276 171.016C74.3374 169.794 74.0969 168.439 74.1061 166.952C74.0988 165.433 74.3249 163.92 74.7846 162.413C75.5799 159.806 76.8267 157.99 78.525 156.965C80.2233 155.941 82.3762 155.826 84.9836 156.621L96.4656 160.124L95.4696 163.389ZM93.7805 169.698C93.35 171.109 92.7314 172.28 91.9246 173.211C91.1252 174.117 90.2193 174.73 89.2069 175.049C88.1706 175.36 87.1143 175.352 86.0378 175.023C85.0092 174.709 84.1493 174.186 83.458 173.452C82.774 172.694 82.3486 171.689 82.1819 170.435C82.0225 169.157 82.231 167.574 82.8075 165.684L84.6462 159.656L87.122 160.411L85.3271 166.296C84.8017 168.018 84.7349 169.266 85.1266 170.039C85.5183 170.812 86.1208 171.323 86.9341 171.571C87.867 171.855 88.7336 171.714 89.5339 171.148C90.3103 170.574 90.8991 169.63 91.3004 168.314C91.6944 167.022 91.7503 165.81 91.4681 164.678C91.1931 163.522 90.5711 162.561 89.6021 161.795L92.1782 161.836C93.1639 162.633 93.8165 163.708 94.136 165.061C94.4317 166.406 94.3132 167.952 93.7805 169.698Z" fill="black"/>
<path d="M98.361 156.074L80.4551 147.433L81.9552 144.324L86.8202 146.672L85.4572 146.389C84.4576 145.296 83.9138 144.006 83.8259 142.52C83.738 141.033 84.1071 139.434 84.9332 137.722L88.0752 139.239C87.9874 139.363 87.9109 139.493 87.8457 139.628C87.7914 139.74 87.737 139.853 87.6827 139.966C86.8457 141.7 86.7006 143.324 87.2475 144.837C87.7944 146.351 89.0476 147.581 91.0071 148.526L99.9263 152.831L98.361 156.074Z" fill="black"/>
<path d="M109.267 137.074C108.162 138.742 106.858 139.739 105.354 140.063C103.85 140.387 102.264 139.997 100.595 138.893L85.3921 128.83L87.3797 125.827L102.458 135.807C103.355 136.4 104.188 136.637 104.957 136.516C105.741 136.375 106.408 135.887 106.96 135.053C107.582 134.114 107.838 133.16 107.731 132.189L110.511 132.679C110.603 133.4 110.53 134.146 110.289 134.917C110.063 135.667 109.722 136.386 109.267 137.074ZM89.6288 135.683L87.1574 134.047L94.1555 123.474L96.6268 125.11L89.6288 135.683Z" fill="black"/>
<path d="M105.796 109.406C106.912 108.224 108.118 107.403 109.414 106.941C110.727 106.461 112.088 106.405 113.496 106.771C114.904 107.138 116.317 107.991 117.735 109.331L126.053 117.187L123.58 119.805L115.562 112.232C114.162 110.91 112.782 110.259 111.42 110.28C110.076 110.283 108.819 110.903 107.652 112.139C106.776 113.067 106.194 114.047 105.905 115.082C105.616 116.116 105.645 117.159 105.994 118.211C106.36 119.244 107.07 120.259 108.124 121.255L115.569 128.287L113.097 130.905L98.6424 117.253L101.012 114.744L104.912 118.427L103.489 117.857C102.99 116.492 102.941 115.069 103.341 113.589C103.741 112.109 104.559 110.715 105.796 109.406Z" fill="black"/>
<path d="M136.425 109.745C134.689 110.972 132.904 111.696 131.072 111.919C129.259 112.128 127.545 111.869 125.93 111.142C124.335 110.401 122.967 109.224 121.827 107.61C120.687 105.997 120.025 104.321 119.839 102.585C119.674 100.834 119.959 99.1781 120.694 97.6178C121.435 96.0227 122.581 94.6769 124.134 93.5803C125.707 92.4692 127.341 91.8353 129.037 91.6785C130.732 91.5217 132.365 91.8384 133.933 92.6287C135.508 93.3841 136.887 94.5993 138.07 96.2743C138.157 96.3969 138.248 96.5471 138.343 96.7249C138.458 96.8884 138.556 97.0488 138.637 97.2062L124.818 106.968L123.325 104.853L135.611 96.1742L134.936 97.7537C134.22 96.6975 133.349 95.9196 132.323 95.4199C131.296 94.9203 130.226 94.7272 129.112 94.8405C128.004 94.919 126.929 95.3262 125.887 96.0621C124.866 96.7836 124.123 97.6606 123.658 98.6931C123.179 99.7052 123.01 100.789 123.152 101.944C123.28 103.078 123.719 104.177 124.469 105.239L124.816 105.729C125.58 106.812 126.511 107.609 127.607 108.12C128.709 108.597 129.876 108.753 131.107 108.588C132.337 108.423 133.535 107.929 134.699 107.107C135.659 106.428 136.412 105.652 136.957 104.777C137.523 103.887 137.871 102.906 138.002 101.834L140.968 102.587C140.838 103.964 140.381 105.267 139.595 106.496C138.83 107.71 137.773 108.793 136.425 109.745Z" fill="black"/>
<path d="M147.447 102.548L138.744 84.6721L141.847 83.1614L144.211 88.0184L143.317 86.9519C143.209 85.4744 143.582 84.1249 144.433 82.9036C145.285 81.6823 146.566 80.6557 148.275 79.8237L149.802 82.9605C149.656 83.0037 149.515 83.0581 149.38 83.1238C149.268 83.1786 149.156 83.2333 149.043 83.288C147.312 84.1309 146.192 85.3158 145.684 86.8428C145.175 88.3698 145.397 90.1114 146.35 92.0677L150.684 100.972L147.447 102.548Z" fill="black"/>
<path d="M165.813 95.0325C164.24 95.5319 162.67 95.794 161.103 95.819C159.561 95.8364 158.286 95.6638 157.279 95.3013L157.846 92.1299C158.831 92.4209 159.98 92.5679 161.292 92.571C162.605 92.574 163.882 92.3788 165.121 91.9853C166.718 91.4783 167.79 90.8887 168.338 90.2163C168.909 89.5364 169.066 88.7913 168.809 87.9808C168.62 87.3849 168.258 86.9882 167.723 86.7907C167.188 86.5931 166.536 86.5245 165.768 86.5846C165.024 86.6372 164.204 86.7401 163.308 86.8933C162.404 87.0227 161.493 87.1283 160.575 87.21C159.648 87.2678 158.771 87.2315 157.942 87.101C157.106 86.9466 156.371 86.6157 155.738 86.1083C155.097 85.5771 154.603 84.7632 154.255 83.6667C153.891 82.5226 153.895 81.4193 154.266 80.3568C154.638 79.2944 155.335 78.3514 156.36 77.5277C157.4 76.6726 158.731 75.9878 160.352 75.4732C161.591 75.0798 162.892 74.8374 164.254 74.7463C165.632 74.6237 166.813 74.7079 167.797 74.9989L167.194 78.1816C166.154 77.882 165.135 77.7724 164.138 77.853C163.14 77.9336 162.176 78.1214 161.247 78.4165C159.745 78.8932 158.704 79.4992 158.124 80.2343C157.536 80.9456 157.364 81.6827 157.606 82.4454C157.81 83.089 158.184 83.5215 158.726 83.7428C159.285 83.9328 159.94 84.0134 160.692 83.9846C161.468 83.9483 162.307 83.8655 163.211 83.7361C164.107 83.5829 165.018 83.4773 165.944 83.4194C166.863 83.3377 167.725 83.3659 168.529 83.504C169.358 83.6346 170.089 83.9536 170.722 84.4609C171.379 84.9608 171.878 85.747 172.219 86.8197C172.582 87.9638 172.562 89.059 172.16 90.1052C171.757 91.1513 171.024 92.1057 169.959 92.9684C168.887 93.8072 167.505 94.4952 165.813 95.0325Z" fill="black"/>
<path d="M204.192 88.7467L207.878 62.7472L218.835 64.3008C221.608 64.694 223.97 65.5846 225.92 66.9725C227.895 68.3639 229.326 70.1202 230.212 72.2414C231.123 74.366 231.396 76.716 231.031 79.2911C230.666 81.8663 229.751 84.0477 228.285 85.8354C226.844 87.6265 224.981 88.9158 222.697 89.7034C220.438 90.4945 217.922 90.6934 215.148 90.3002L204.192 88.7467ZM208.364 86.0419L215.384 87.0373C217.538 87.3427 219.453 87.1974 221.129 86.6015C222.829 86.0091 224.217 85.0438 225.29 83.7058C226.368 82.343 227.043 80.6959 227.317 78.7645C227.595 76.8084 227.403 75.0384 226.744 73.4546C226.084 71.8708 225.02 70.558 223.551 69.5162C222.107 68.4779 220.308 67.806 218.154 67.5005L211.134 66.5052L208.364 86.0419Z" fill="black"/>
<path d="M238.934 96.5969C237.063 95.8899 235.379 94.9332 233.883 93.7266C232.396 92.4966 231.334 91.2398 230.696 89.9563L233.028 87.7094C233.655 88.8817 234.591 90.0109 235.839 91.0968C237.086 92.1828 238.493 93.0218 240.061 93.6139C241.488 94.1529 242.708 94.4266 243.721 94.4348C244.734 94.4431 245.557 94.246 246.19 93.8435C246.832 93.4177 247.29 92.8421 247.564 92.1169C247.882 91.2746 247.857 90.4901 247.49 89.7633C247.147 89.0454 246.588 88.3664 245.813 87.7265C245.072 87.072 244.218 86.4289 243.254 85.7973C242.289 85.1657 241.327 84.4946 240.365 83.784C239.436 83.0588 238.62 82.2826 237.916 81.4555C237.236 80.6373 236.782 79.7171 236.553 78.695C236.333 77.6495 236.47 76.4717 236.965 75.1615C237.443 73.8981 238.207 72.8638 239.26 72.0584C240.345 71.2384 241.697 70.7733 243.316 70.663C244.967 70.5381 246.869 70.8821 249.021 71.6951C250.449 72.2341 251.793 72.9559 253.056 73.8604C254.318 74.765 255.331 75.7626 256.096 76.8533L253.877 79.2234C253.09 78.1238 252.168 77.2011 251.113 76.4551C250.067 75.6857 248.994 75.0934 247.895 74.6781C246.514 74.1567 245.313 73.9036 244.292 73.9187C243.27 73.9339 242.438 74.1544 241.796 74.5802C241.178 75.0149 240.731 75.5948 240.458 76.3201C240.131 77.1858 240.139 77.9776 240.483 78.6955C240.85 79.4223 241.409 80.1012 242.159 80.7323C242.934 81.3723 243.798 82.0197 244.754 82.6748C245.719 83.3064 246.67 83.9731 247.608 84.6749C248.569 85.3855 249.39 86.1499 250.07 86.9682C250.773 87.7953 251.239 88.7199 251.468 89.742C251.697 90.7641 251.568 91.9185 251.082 93.2053C250.614 94.4453 249.837 95.4752 248.752 96.2952C247.676 97.0917 246.301 97.548 244.626 97.6641C242.984 97.7656 241.087 97.4098 238.934 96.5969Z" fill="black"/>
<path d="M267.796 112.555C266.478 111.561 265.496 110.351 264.849 108.923C264.238 107.491 264.055 105.928 264.299 104.233C264.564 102.553 265.374 100.814 266.729 99.0173C268.084 97.2202 269.523 95.9561 271.046 95.2249C272.588 94.5087 274.124 94.2577 275.654 94.4719C277.204 94.7011 278.658 95.3277 280.016 96.3517C281.573 97.5263 282.695 98.9048 283.381 100.487C284.067 102.07 284.3 103.733 284.081 105.478C283.876 107.203 283.164 108.875 281.944 110.492C280.724 112.109 279.306 113.263 277.688 113.954C276.071 114.645 274.407 114.878 272.697 114.654C270.987 114.429 269.353 113.73 267.796 112.555ZM255.133 111.839L271.487 90.1542L274.242 92.2323L271.012 96.5153L268.054 100.064L265.575 103.974L258.008 114.007L255.133 111.839ZM269.454 109.858C270.472 110.626 271.554 111.082 272.699 111.225C273.864 111.383 274.992 111.216 276.084 110.724C277.21 110.227 278.195 109.419 279.039 108.301C279.897 107.163 280.395 106.004 280.533 104.824C280.707 103.639 280.557 102.508 280.085 101.431C279.633 100.37 278.897 99.4548 277.879 98.6868C276.881 97.9339 275.799 97.4784 274.634 97.3202C273.489 97.1771 272.36 97.3442 271.249 97.8214C270.172 98.2937 269.205 99.0989 268.346 100.237C267.503 101.355 266.987 102.517 266.799 103.722C266.646 104.922 266.795 106.053 267.248 107.114C267.72 108.191 268.455 109.106 269.454 109.858Z" fill="black"/>
<path d="M286.298 130.074L289.437 127.281L289.901 126.617L295.254 121.855C296.394 120.841 296.973 119.723 296.991 118.502C297.045 117.283 296.481 116.01 295.301 114.684C294.52 113.805 293.606 113.079 292.559 112.504C291.531 111.912 290.516 111.543 289.515 111.396L290.536 108.48C291.834 108.697 293.115 109.197 294.38 109.98C295.681 110.764 296.855 111.745 297.902 112.922C299.714 114.959 300.615 116.969 300.605 118.953C300.596 120.936 299.573 122.834 297.536 124.645L288.567 132.624L286.298 130.074ZM281.791 125.346C280.811 124.244 280.133 123.106 279.759 121.933C279.401 120.778 279.35 119.686 279.605 118.656C279.878 117.609 280.436 116.711 281.277 115.963C282.08 115.248 282.975 114.787 283.961 114.579C284.965 114.39 286.045 114.55 287.202 115.061C288.375 115.59 289.619 116.592 290.932 118.068L295.121 122.777L293.187 124.498L289.098 119.901C287.901 118.556 286.87 117.849 286.006 117.781C285.142 117.713 284.393 117.961 283.757 118.526C283.029 119.174 282.698 119.988 282.765 120.966C282.85 121.927 283.35 122.922 284.264 123.95C285.162 124.959 286.167 125.638 287.281 125.986C288.411 126.353 289.555 126.323 290.714 125.894L289.338 128.072C288.144 128.499 286.886 128.496 285.565 128.065C284.263 127.616 283.005 126.71 281.791 125.346Z" fill="black"/>
<path d="M291.144 136.498L307.877 125.759L309.741 128.664L305.194 131.582L306.149 130.568C307.603 130.288 308.987 130.5 310.3 131.202C311.613 131.905 312.782 133.056 313.809 134.656L310.873 136.54C310.813 136.4 310.742 136.267 310.661 136.141C310.594 136.036 310.526 135.93 310.459 135.825C309.419 134.205 308.111 133.231 306.535 132.906C304.959 132.58 303.255 133.005 301.424 134.18L293.089 139.529L291.144 136.498Z" fill="black"/>
<path d="M301.149 154.718C300.293 152.909 300.116 151.278 300.617 149.823C301.118 148.368 302.273 147.213 304.081 146.357L320.56 138.557L322.101 141.812L305.758 149.548C304.786 150.008 304.152 150.599 303.857 151.319C303.572 152.063 303.644 152.887 304.072 153.791C304.554 154.808 305.237 155.522 306.124 155.933L304.265 158.057C303.601 157.763 303.001 157.314 302.465 156.709C301.941 156.128 301.502 155.464 301.149 154.718ZM312.504 138.635L315.183 137.367L320.607 148.828L317.929 150.096L312.504 138.635Z" fill="black"/>
<path d="M326.713 166.185C327.149 167.751 327.229 169.209 326.955 170.557C326.687 171.929 326.033 173.123 324.991 174.139C323.95 175.155 322.489 175.925 320.61 176.447L309.586 179.51L308.622 176.041L319.248 173.088C321.103 172.572 322.374 171.726 323.059 170.549C323.751 169.396 323.869 168.001 323.414 166.362C323.073 165.133 322.534 164.128 321.797 163.346C321.061 162.565 320.153 162.051 319.072 161.806C317.999 161.586 316.763 161.669 315.365 162.058L305.498 164.8L304.534 161.33L323.69 156.007L324.614 159.332L319.446 160.768L320.668 159.844C322.096 160.123 323.339 160.815 324.4 161.922C325.46 163.029 326.231 164.45 326.713 166.185Z" fill="black"/>
<path d="M310.7 192.913C310.55 190.793 310.855 188.891 311.613 187.208C312.374 185.55 313.483 184.218 314.941 183.212C316.401 182.231 318.117 181.672 320.088 181.532C322.058 181.393 323.835 181.694 325.416 182.435C327 183.2 328.268 184.302 329.222 185.738C330.203 187.199 330.76 188.877 330.894 190.773C331.03 192.693 330.726 194.42 329.981 195.952C329.237 197.483 328.121 198.715 326.632 199.648C325.17 200.604 323.417 201.154 321.371 201.298C321.221 201.309 321.046 201.309 320.844 201.298C320.645 201.312 320.457 201.313 320.28 201.3L319.088 184.423L321.67 184.241L322.73 199.247L321.729 197.851C323.003 197.786 324.12 197.444 325.079 196.824C326.038 196.205 326.758 195.39 327.238 194.378C327.745 193.389 327.953 192.259 327.863 190.987C327.775 189.739 327.41 188.649 326.767 187.717C326.15 186.783 325.31 186.077 324.249 185.601C323.212 185.123 322.045 184.929 320.748 185.021L320.149 185.063C318.827 185.156 317.663 185.54 316.658 186.212C315.679 186.908 314.941 187.825 314.445 188.963C313.949 190.102 313.751 191.382 313.851 192.804C313.934 193.976 314.209 195.022 314.675 195.942C315.143 196.887 315.801 197.693 316.651 198.36L314.471 200.507C313.359 199.683 312.482 198.617 311.838 197.308C311.196 196.025 310.816 194.56 310.7 192.913Z" fill="black"/>
<path d="M311.135 205.587L330.94 207.344L330.635 210.781L325.254 210.304L326.629 210.087C327.95 210.757 328.915 211.771 329.523 213.131C330.13 214.49 330.35 216.116 330.182 218.01L326.707 217.701C326.745 217.554 326.771 217.406 326.784 217.256C326.795 217.132 326.806 217.007 326.817 216.883C326.987 214.965 326.549 213.394 325.503 212.171C324.456 210.949 322.849 210.241 320.682 210.049L310.817 209.174L311.135 205.587Z" fill="black"/>
<path d="M308.122 225.111C308.507 223.506 309.093 222.027 309.88 220.672C310.662 219.342 311.468 218.34 312.298 217.664L314.721 219.788C313.963 220.481 313.244 221.388 312.564 222.511C311.883 223.634 311.392 224.828 311.089 226.092C310.698 227.722 310.65 228.945 310.943 229.761C311.23 230.601 311.787 231.12 312.614 231.318C313.222 231.464 313.749 231.359 314.194 231.003C314.639 230.646 315.035 230.124 315.38 229.435C315.719 228.771 316.054 228.015 316.386 227.169C316.741 226.328 317.121 225.493 317.526 224.664C317.954 223.841 318.439 223.109 318.978 222.467C319.542 221.83 320.205 221.372 320.966 221.091C321.752 220.817 322.705 220.813 323.823 221.081C324.991 221.361 325.934 221.934 326.652 222.801C327.37 223.667 327.817 224.752 327.994 226.054C328.189 227.387 328.088 228.88 327.692 230.534C327.389 231.798 326.925 233.037 326.3 234.25C325.693 235.494 325.011 236.462 324.254 237.155L321.84 234.995C322.633 234.259 323.253 233.443 323.699 232.547C324.145 231.651 324.482 230.729 324.709 229.78C325.076 228.248 325.095 227.044 324.765 226.168C324.459 225.297 323.917 224.769 323.139 224.582C322.482 224.425 321.919 224.521 321.449 224.872C320.998 225.252 320.591 225.772 320.227 226.43C319.858 227.113 319.495 227.875 319.14 228.716C318.808 229.562 318.428 230.397 317.999 231.22C317.595 232.049 317.126 232.772 316.592 233.39C316.053 234.032 315.402 234.494 314.64 234.774C313.873 235.079 312.942 235.1 311.848 234.838C310.68 234.558 309.753 233.976 309.065 233.091C308.376 232.206 307.938 231.085 307.749 229.728C307.584 228.377 307.708 226.838 308.122 225.111Z" fill="black"/>
</svg>
